<?xml version="1.0" encoding="utf-8"?>
<!-- Generator: Adobe Illustrator 19.0.0, SVG Export Plug-In . SVG Version: 6.00 Build 0)  -->
<svg version="1.1" id="レイヤー_1" xmlns="http://www.w3.org/2000/svg" xmlns:xlink="http://www.w3.org/1999/xlink" x="0px"
	 y="0px" viewBox="0 0 610.2 77.5" style="enable-background:new 0 0 610.2 77.5;" xml:space="preserve">
<style type="text/css">
	.st0{fill:#FFFFFF;stroke:#0000FF;stroke-width:3;stroke-miterlimit:10;}
	.st1{fill:#FFFFFF;}
	.st2{fill:#0000FF;}
	.st3{fill:#0000FF;stroke:#FFFFFF;stroke-miterlimit:10;}
	.st4{font-family:'ArialMT';}
	.st5{font-size:14.9687px;}
	.st6{font-family:'KozGoPr6N-Regular-90ms-RKSJ-H';}
	.st7{font-size:18px;}
</style>
<polygon id="XMLID_27_" class="st0" points="597.2,152.7 410.7,152.7 423.2,118.9 410.7,85.2 597.2,85.2 609.7,118.9 "/>
<rect id="XMLID_8_" x="240" y="-242" style="fill:none;" width="16" height="0"/>
<g id="XMLID_1_">
	<polygon id="XMLID_44_" class="st1" points="2.5,-16.5 2.5,-80 185.6,-80 197.4,-48.3 185.6,-16.5 	"/>
	<path id="XMLID_41_" class="st2" d="M184.2-78l11,29.8l-11,29.8H4.5V-78H184.2 M187-82H0.5v67.5H187l12.5-33.8L187-82L187-82z"/>
</g>
<text id="XMLID_3_" transform="matrix(1.2025 0 0 1 43.5 -60.601)"><tspan x="0" y="0" class="st2 st4 st5">Step1</tspan><tspan x="0" y="29.2" class="st2 st6 st7">入力画面</tspan></text>
<polygon id="XMLID_14_" class="st3" points="392.3,-14.5 205.8,-14.5 218.3,-48.3 205.8,-82 392.3,-82 404.8,-48.3 "/>
<text id="XMLID_13_" transform="matrix(1.2025 0 0 1 248.7516 -60.601)"><tspan x="0" y="0" class="st1 st4 st5">Step2</tspan><tspan x="0" y="29.2" class="st1 st6 st7">確認画面</tspan></text>
<polygon id="XMLID_18_" class="st3" points="597.2,-14.5 410.7,-14.5 423.2,-48.3 410.7,-82 597.2,-82 609.7,-48.3 "/>
<text id="XMLID_17_" transform="matrix(1.2025 0 0 1 453.6698 -60.601)"><tspan x="0" y="0" class="st1 st4 st5">Step3</tspan><tspan x="0" y="29.2" class="st1 st6 st7">完了画面</tspan></text>
<polygon id="XMLID_23_" class="st3" points="187,68 0.5,68 0.5,0.5 187,0.5 199.5,34.3 "/>
<text id="XMLID_22_" transform="matrix(1.2025 0 0 1 43.5 21.899)"><tspan x="0" y="0" class="st1 st4 st5">Step1</tspan><tspan x="0" y="29.2" class="st1 st6 st7">入力画面</tspan></text>
<g id="XMLID_21_">
	<polygon id="XMLID_49_" class="st1" points="207.9,66.5 219.9,34.3 207.9,2 391.2,2 403.2,34.3 391.2,66.5 	"/>
	<path id="XMLID_46_" class="st2" d="M390.2,3.5l11.4,30.8L390.2,65H210.1l11-29.7l0.4-1l-0.4-1l-11-29.7H390.2 M392.3,0.5H205.8
		l12.5,33.8L205.8,68h186.5l12.5-33.8L392.3,0.5L392.3,0.5z"/>
</g>
<text id="XMLID_20_" transform="matrix(1.2025 0 0 1 248.7516 21.899)"><tspan x="0" y="0" class="st2 st4 st5">Step2</tspan><tspan x="0" y="29.2" class="st2 st6 st7">確認画面</tspan></text>
<text id="XMLID_34_" transform="matrix(1.2025 0 0 1 458.7518 106.5659)"><tspan x="0" y="0" class="st4 st5" style="fill:#0000FF;stroke:#0000FF;stroke-miterlimit:10;">Step3</tspan><tspan x="0" y="29.2" class="st6 st7" style="fill:#0000FF;stroke:#0000FF;stroke-miterlimit:10;">完了画面</tspan></text>
<polygon id="XMLID_19_" class="st3" points="597.2,68 410.7,68 423.2,34.3 410.7,0.5 597.2,0.5 609.7,34.3 "/>
<text id="XMLID_16_" transform="matrix(1.2025 0 0 1 453.6698 21.899)"><tspan x="0" y="0" class="st1 st4 st5">Step3</tspan><tspan x="0" y="29.2" class="st1 st6 st7">完了画面</tspan></text>
<polygon id="XMLID_31_" class="st3" points="187,152.7 0.5,152.7 0.5,85.2 187,85.2 199.5,118.9 "/>
<text id="XMLID_30_" transform="matrix(1.2025 0 0 1 43.5 106.5657)"><tspan x="0" y="0" class="st1 st4 st5">Step1</tspan><tspan x="0" y="29.2" class="st1 st6 st7">入力画面</tspan></text>
<polygon id="XMLID_29_" class="st3" points="392.3,152.7 205.8,152.7 218.3,118.9 205.8,85.2 392.3,85.2 404.8,118.9 "/>
<text id="XMLID_28_" transform="matrix(1.2025 0 0 1 248.7516 106.5657)"><tspan x="0" y="0" class="st1 st4 st5">Step2</tspan><tspan x="0" y="29.2" class="st1 st6 st7">確認画面</tspan></text>
</svg>
