<?xml version="1.0" encoding="utf-8"?>
<!-- Generator: Adobe Illustrator 26.2.1, SVG Export Plug-In . SVG Version: 6.00 Build 0)  -->
<svg version="1.1" id="レイヤー_1" xmlns="http://www.w3.org/2000/svg" xmlns:xlink="http://www.w3.org/1999/xlink" x="0px"
	 y="0px" viewBox="0 0 916.6 238.6" style="enable-background:new 0 0 916.6 238.6;" xml:space="preserve">
<style type="text/css">
	.st0{fill:#95786C;stroke:#95786C;stroke-width:0.9781;stroke-miterlimit:10;}
</style>
<g>
	<g>
		<path class="st0" d="M113.4,34.8c27.7,0,40.2,14.4,40.2,33.7c0,29.7-23.5,43.9-45.8,43.9c-1.7,0-5.3-0.4-7.6-1l-12.6-3L82,141
			c-2.7,15-1.9,17.3,15.6,18.7l-1,5.6H45l1.1-5.6c14.9-1.4,17.2-2.6,20-19.3l15.1-81.5c2.9-15.7,1.9-16.9-14.7-18.5l1.1-5.6H113.4z
			 M89,101.9c2.7,0.8,8.8,2.6,15.6,2.6c13.7,0,31.8-8.6,31.8-35.9c0-17.1-8.8-27.1-24.2-27.1c-9.9,0-13.2,2.8-14.5,11.2L89,101.9z"
			/>
		<path class="st0" d="M258.6,106.1c0,20.9-9.9,42.3-26.7,53.6c-6.9,4.4-14.9,8-23.5,8c-18.1,0-25.6-15.2-25.6-31.3
			c0-27.7,14.1-47.6,30.7-56.2c6.1-3.2,13.9-5.4,19.6-5.4C249.2,74.8,258.6,85.8,258.6,106.1z M199.1,134.2c0,15,5.3,25.1,15.8,25.1
			c18.1,0,27.7-30.7,27.7-52.4c0-16.7-6.9-23.7-16-23.7C207.4,83.2,199.1,113.5,199.1,134.2z"/>
		<path class="st0" d="M298,93.8c9.5-11.8,19.6-19.1,25.2-19.1c6.5,0,5.9,10.6,2.3,27.9l-1.1,5.4c10.3-18.5,23.5-33.3,31.1-33.3
			c4.6,0,8.8,4,8.8,9c0,4.4-4,10.4-7.4,12.8c-1.7,1.2-3.2,1.2-4.2,0c-2.1-2.4-4-5.8-6.3-5.8c-4.4,0-13.7,14.2-18.1,22.5
			c-6.7,12.6-10.1,31.1-13.9,50.4c-4.2,0.8-10.1,2.6-13.9,4l-1.3-1.4c4.6-18.5,11.3-49,13.9-63.6c2.1-11.2,1.5-13,0.2-13
			c-1.9,0-6.7,3.2-12.4,9.2L298,93.8z"/>
		<path class="st0" d="M442.8,84.2c-3.8,0.4-13.5,1.2-19.3,1.2c-8.6,41.7-11.3,54.6-12.2,60.6c-1,6.2,0.2,8,1.9,8
			c3.8,0,10.1-5.2,17.2-12.6l2.5,5c-6.1,9.8-21,21.3-29.2,21.3c-6.7,0-9.9-5.4-5-29.1l11.1-53.2h-15.3v-1.8l5.5-6.4h11.4l4.4-21.5
			c3.1-1.8,11.1-7.2,15.1-11l1.7,1c-2.3,8-5.3,21.1-7.4,31.5h21.2L442.8,84.2z"/>
		<path class="st0" d="M491,77.2c2.9-15,7.2-29.7,16.4-40.3c8.8-10.4,20-15.9,27.7-15.9c6.7,0,12.2,4,12.2,8.2c0,3-3.2,8-5.7,10
			c-1.5,1.2-3.1,1.4-4.4,0c-4.4-5-9.2-7.6-13.2-7.6c-7.2,0-12.4,8.4-18.3,45.5h21.5l-3.6,7.2c-3.2,0.2-13.9,1-19.1,1
			c-3.6,22.1-5.7,34.9-9.9,58.6c-6.5,35.5-13.5,49.4-24,60.8c-8.4,9.6-17.5,13.2-22.1,13.2c-7.1,0-12.2-3.8-12.2-8.8
			c0-3.4,2.7-8.6,5.9-11c1.3-1,2.9-1,3.6,0c3.8,3.4,7.6,6.8,12.4,6.8c10.9,0,14.1-14,20.6-54c4.6-27.3,7.6-45.7,10.7-65.6h-16.2
			l0.2-2.4l5.3-5.8H491z"/>
		<path class="st0" d="M624.7,106.1c0,20.9-9.9,42.3-26.7,53.6c-6.9,4.4-14.9,8-23.5,8c-18.1,0-25.6-15.2-25.6-31.3
			c0-27.7,14.1-47.6,30.7-56.2c6.1-3.2,13.9-5.4,19.6-5.4C615.3,74.8,624.7,85.8,624.7,106.1z M565.2,134.2c0,15,5.3,25.1,15.8,25.1
			c18.1,0,27.7-30.7,27.7-52.4c0-16.7-6.9-23.7-16-23.7C573.6,83.2,565.2,113.5,565.2,134.2z"/>
		<path class="st0" d="M698.1,147c-9.5,13.4-22.1,20.7-27.7,20.7c-4.8,0-7.6-4-3.8-23.3c6.9-34.3,14.3-70.6,20.4-101.5
			c1.5-8,1-8.8-5.9-9.4c-2.1-0.2-5.5-0.6-7.1-0.6l1.1-5.2c8.2-1,17.9-3,23.3-5c3.4-1.4,4.6-1.6,5.7-1.6c1.7,0,1.7,1.8,0.8,6.4
			c-8.6,38.5-17.9,84.3-24.2,117.8c-1.1,5.6-1,7.4,0.6,7.4c1.7,0,7.1-2.8,13.9-10.6L698.1,147z"/>
		<path class="st0" d="M771.9,147.8c-9.5,13.4-21.5,19.9-27.3,19.9c-5,0-7.1-5.2-3.4-21.3c3.1-13.2,8.4-34.7,12-51
			c0.8-3.8,0.6-5.6-0.6-5.6c-1.9,0-7.6,4-12.6,9l-2.5-5.2c9-10.2,21.9-18.9,28-18.9c4.8,0,5,6.8,1.5,21.7
			c-3.6,14.4-8.2,34.7-11.6,49c-1.3,5.4-1.3,7.6,0,7.6c1.9,0,7.1-2.8,13.7-10.2L771.9,147.8z M777.2,42.7c0,6.2-4.2,11.6-10.1,11.6
			c-4.8,0-8.4-3.6-8.4-9c0-5.2,3.8-11.8,10.7-11.8C774.6,33.4,777.2,37.6,777.2,42.7z"/>
		<path class="st0" d="M886.7,106.1c0,20.9-9.9,42.3-26.7,53.6c-6.9,4.4-14.9,8-23.5,8c-18.1,0-25.6-15.2-25.6-31.3
			c0-27.7,14.1-47.6,30.7-56.2c6.1-3.2,13.9-5.4,19.6-5.4C877.4,74.8,886.7,85.8,886.7,106.1z M827.2,134.2c0,15,5.3,25.1,15.8,25.1
			c18.1,0,27.7-30.7,27.7-52.4c0-16.7-6.9-23.7-16-23.7C835.6,83.2,827.2,113.5,827.2,134.2z"/>
	</g>
</g>
</svg>
