<?xml version="1.0" encoding="utf-8"?>
<!-- Generator: Adobe Illustrator 19.0.0, SVG Export Plug-In . SVG Version: 6.00 Build 0)  -->
<svg version="1.1" id="レイヤー_1" xmlns="http://www.w3.org/2000/svg" xmlns:xlink="http://www.w3.org/1999/xlink" x="0px"
	 y="0px" viewBox="0 0 611.3 70.5" style="enable-background:new 0 0 611.3 70.5;" xml:space="preserve">
<style type="text/css">
	.st0{fill:#FFFFFF;stroke:#0000FF;stroke-width:3;stroke-miterlimit:10;}
	.st1{fill:#FFFFFF;}
	.st2{fill:#0000FF;}
	.st3{fill:#0000FF;stroke:#FFFFFF;stroke-miterlimit:10;}
	.st4{fill:#0000FF;stroke:#0000FF;stroke-miterlimit:10;}
	.st5{font-family:'ArialMT';}
	.st6{font-size:14.9687px;}
	.st7{font-family:'KozGoPr6N-Regular-90ms-RKSJ-H';}
	.st8{font-size:18px;}
</style>
<polygon id="XMLID_27_" class="st0" points="597.2,69 410.7,69 423.2,35.3 410.7,1.5 597.2,1.5 609.7,35.3 "/>
<rect id="XMLID_8_" x="240" y="-325.7" style="fill:none;" width="16" height="0"/>
<g id="XMLID_1_">
	<polygon id="XMLID_44_" class="st1" points="2.5,-100.2 2.5,-163.7 185.6,-163.7 197.4,-131.9 185.6,-100.2 	"/>
	<path id="XMLID_41_" class="st2" d="M184.2-161.7l11,29.8l-11,29.7H4.5v-59.5H184.2 M187-165.7H0.5v67.5H187l12.5-33.7L187-165.7
		L187-165.7z"/>
</g>
<text id="XMLID_3_" transform="matrix(1.2025 0 0 1 43.5 -144.2676)"><tspan x="0" y="0" class="st2 st5 st6">Step1</tspan><tspan x="0" y="29.2" class="st2 st7 st8">入力画面</tspan></text>
<polygon id="XMLID_14_" class="st3" points="392.3,-98.2 205.8,-98.2 218.3,-131.9 205.8,-165.7 392.3,-165.7 404.8,-131.9 "/>
<text id="XMLID_13_" transform="matrix(1.2025 0 0 1 248.7516 -144.2676)"><tspan x="0" y="0" class="st1 st5 st6">Step2</tspan><tspan x="0" y="29.2" class="st1 st7 st8">確認画面</tspan></text>
<polygon id="XMLID_18_" class="st3" points="597.2,-98.2 410.7,-98.2 423.2,-131.9 410.7,-165.7 597.2,-165.7 609.7,-131.9 "/>
<text id="XMLID_17_" transform="matrix(1.2025 0 0 1 453.6698 -144.2676)"><tspan x="0" y="0" class="st1 st5 st6">Step3</tspan><tspan x="0" y="29.2" class="st1 st7 st8">完了画面</tspan></text>
<polygon id="XMLID_23_" class="st3" points="187,-15.7 0.5,-15.7 0.5,-83.2 187,-83.2 199.5,-49.4 "/>
<text id="XMLID_22_" transform="matrix(1.2025 0 0 1 43.5 -61.7676)"><tspan x="0" y="0" class="st1 st5 st6">Step1</tspan><tspan x="0" y="29.2" class="st1 st7 st8">入力画面</tspan></text>
<g id="XMLID_21_">
	<polygon id="XMLID_49_" class="st1" points="207.9,-17.2 219.9,-49.4 207.9,-81.7 391.2,-81.7 403.2,-49.4 391.2,-17.2 	"/>
	<path id="XMLID_46_" class="st2" d="M390.2-80.2l11.4,30.8l-11.4,30.8H210.1l11-29.7l0.4-1l-0.4-1l-11-29.7H390.2 M392.3-83.2
		H205.8l12.5,33.8l-12.5,33.8h186.5l12.5-33.8L392.3-83.2L392.3-83.2z"/>
</g>
<text id="XMLID_20_" transform="matrix(1.2025 0 0 1 248.7516 -61.7676)"><tspan x="0" y="0" class="st2 st5 st6">Step2</tspan><tspan x="0" y="29.2" class="st2 st7 st8">確認画面</tspan></text>
<text id="XMLID_34_" transform="matrix(1.2025 0 0 1 458.7518 22.8993)"><tspan x="0" y="0" class="st4 st5 st6">Step3</tspan><tspan x="0" y="29.2" class="st4 st7 st8">完了画面</tspan></text>
<polygon id="XMLID_19_" class="st3" points="597.2,-15.7 410.7,-15.7 423.2,-49.4 410.7,-83.2 597.2,-83.2 609.7,-49.4 "/>
<text id="XMLID_16_" transform="matrix(1.2025 0 0 1 453.6698 -61.7676)"><tspan x="0" y="0" class="st1 st5 st6">Step3</tspan><tspan x="0" y="29.2" class="st1 st7 st8">完了画面</tspan></text>
<polygon id="XMLID_31_" class="st3" points="187,69 0.5,69 0.5,1.5 187,1.5 199.5,35.3 "/>
<text id="XMLID_30_" transform="matrix(1.2025 0 0 1 43.5 22.899)"><tspan x="0" y="0" class="st1 st5 st6">Step1</tspan><tspan x="0" y="29.2" class="st1 st7 st8">入力画面</tspan></text>
<polygon id="XMLID_29_" class="st3" points="392.3,69 205.8,69 218.3,35.3 205.8,1.5 392.3,1.5 404.8,35.3 "/>
<text id="XMLID_28_" transform="matrix(1.2025 0 0 1 248.7516 22.899)"><tspan x="0" y="0" class="st1 st5 st6">Step2</tspan><tspan x="0" y="29.2" class="st1 st7 st8">確認画面</tspan></text>
</svg>
