<?xml version="1.0" encoding="utf-8"?>
<!-- Generator: Adobe Illustrator 19.0.0, SVG Export Plug-In . SVG Version: 6.00 Build 0)  -->
<svg version="1.1" id="レイヤー_1" xmlns="http://www.w3.org/2000/svg" xmlns:xlink="http://www.w3.org/1999/xlink" x="0px"
	 y="0px" viewBox="0 0 800 400" style="enable-background:new 0 0 800 400;" xml:space="preserve">
<style type="text/css">
	.st0{fill:#FFFFFF;stroke:#0000FF;stroke-width:3;stroke-miterlimit:10;}
	.st1{fill:#FFFFFF;}
	.st2{fill:#0000FF;}
	.st3{font-family:'ArialMT';}
	.st4{font-size:14.9687px;}
	.st5{font-family:'KozGoPr6N-Regular-90ms-RKSJ-H';}
	.st6{font-size:18px;}
	.st7{fill:#0000FF;stroke:#FFFFFF;stroke-miterlimit:10;}
	.st8{fill:#0000FF;stroke:#0000FF;stroke-miterlimit:10;}
</style>
<polygon id="XMLID_27_" class="st0" points="646.2,284.7 459.7,284.7 472.2,250.9 459.7,217.2 646.2,217.2 658.7,250.9 "/>
<rect id="XMLID_8_" x="289" y="-110" style="fill:none;" width="16" height="0"/>
<g id="XMLID_1_">
	<polygon id="XMLID_44_" class="st1" points="51.5,115.5 51.5,52 234.6,52 246.4,83.8 234.6,115.5 	"/>
	<path id="XMLID_41_" class="st2" d="M233.2,54l11,29.8l-11,29.8H53.5V54H233.2 M236,50H49.5v67.5H236l12.5-33.8L236,50L236,50z"/>
</g>
<text id="XMLID_3_" transform="matrix(1.2025 0 0 1 92.4969 71.399)"><tspan x="0" y="0" class="st2 st3 st4">Step1</tspan><tspan x="0" y="29.2" class="st2 st5 st6">入力画面</tspan></text>
<polygon id="XMLID_14_" class="st7" points="441.2,117.5 254.7,117.5 267.2,83.8 254.7,50 441.2,50 453.7,83.8 "/>
<text id="XMLID_13_" transform="matrix(1.2025 0 0 1 297.7484 71.399)"><tspan x="0" y="0" class="st1 st3 st4">Step2</tspan><tspan x="0" y="29.2" class="st1 st5 st6">確認画面</tspan></text>
<polygon id="XMLID_18_" class="st7" points="646.2,117.5 459.7,117.5 472.2,83.8 459.7,50 646.2,50 658.7,83.8 "/>
<text id="XMLID_17_" transform="matrix(1.2025 0 0 1 502.6667 71.399)"><tspan x="0" y="0" class="st1 st3 st4">Step3</tspan><tspan x="0" y="29.2" class="st1 st5 st6">完了画面</tspan></text>
<polygon id="XMLID_23_" class="st7" points="236,200 49.5,200 49.5,132.5 236,132.5 248.5,166.3 "/>
<text id="XMLID_22_" transform="matrix(1.2025 0 0 1 92.4969 153.899)"><tspan x="0" y="0" class="st1 st3 st4">Step1</tspan><tspan x="0" y="29.2" class="st1 st5 st6">入力画面</tspan></text>
<g id="XMLID_21_">
	<polygon id="XMLID_49_" class="st1" points="256.9,198.5 268.8,166.3 256.9,134 440.2,134 452.1,166.3 440.2,198.5 	"/>
	<path id="XMLID_46_" class="st2" d="M439.2,135.5l11.4,30.8L439.2,197H259.1l11-29.7l0.4-1l-0.4-1l-11-29.7H439.2 M441.2,132.5
		H254.7l12.5,33.8L254.7,200h186.5l12.5-33.8L441.2,132.5L441.2,132.5z"/>
</g>
<text id="XMLID_20_" transform="matrix(1.2025 0 0 1 297.7484 153.899)"><tspan x="0" y="0" class="st2 st3 st4">Step2</tspan><tspan x="0" y="29.2" class="st2 st5 st6">確認画面</tspan></text>
<text id="XMLID_34_" transform="matrix(1.2025 0 0 1 507.7487 238.5659)"><tspan x="0" y="0" class="st8 st3 st4">Step3</tspan><tspan x="0" y="29.2" class="st8 st5 st6">完了画面</tspan></text>
<polygon id="XMLID_19_" class="st7" points="646.2,200 459.7,200 472.2,166.3 459.7,132.5 646.2,132.5 658.7,166.3 "/>
<text id="XMLID_16_" transform="matrix(1.2025 0 0 1 502.6667 153.899)"><tspan x="0" y="0" class="st1 st3 st4">Step3</tspan><tspan x="0" y="29.2" class="st1 st5 st6">完了画面</tspan></text>
<polygon id="XMLID_31_" class="st7" points="236,284.7 49.5,284.7 49.5,217.2 236,217.2 248.5,250.9 "/>
<text id="XMLID_30_" transform="matrix(1.2025 0 0 1 92.4969 238.5657)"><tspan x="0" y="0" class="st1 st3 st4">Step1</tspan><tspan x="0" y="29.2" class="st1 st5 st6">入力画面</tspan></text>
<polygon id="XMLID_29_" class="st7" points="441.2,284.7 254.7,284.7 267.2,250.9 254.7,217.2 441.2,217.2 453.7,250.9 "/>
<text id="XMLID_28_" transform="matrix(1.2025 0 0 1 297.7484 238.5657)"><tspan x="0" y="0" class="st1 st3 st4">Step2</tspan><tspan x="0" y="29.2" class="st1 st5 st6">確認画面</tspan></text>
</svg>
