<!--?xml version="1.0" encoding="utf-8"?-->
<!-- Generator: Adobe Illustrator 19.1.1, SVG Export Plug-In . SVG Version: 6.00 Build 0)  -->
<svg version="1.1" id="_x31_0" xmlns="http://www.w3.org/2000/svg" xmlns:xlink="http://www.w3.org/1999/xlink" x="0px" y="0px" viewBox="0 0 512 512" style="width: 256px; height: 256px; opacity: 1;" xml:space="preserve">
<style type="text/css">
	.st0{fill:#374149;}
</style>
<g>
	<path class="st0" d="M478.682,144.32v-0.078c-4.641-71.762-58.558-130.398-128.238-142c-7.922-1.359-16-2.082-24.32-2.16
		C325.721,0,325.162,0,324.76,0H111.24C68.041,0,32.92,35.121,32.92,78.32v355.282c0,43.199,35.121,78.398,78.32,78.398h289.52
		c43.203,0,78.32-35.199,78.32-78.398V154.32C479.08,150.961,479.002,147.602,478.682,144.32z M434.682,144.301v0.019
		c0.398,3.282,0.481,6.641,0.481,10v279.282c0,19.039-15.442,34.481-34.402,34.481H111.24c-18.961,0-34.398-15.442-34.398-34.481
		V78.32c0-19.038,15.438-34.398,34.398-34.398h214.883c8.398,0.078,16.477,1.122,24.32,3.039v48.16
		c0,27.122,22,49.122,49.118,49.122h25.523L434.682,144.301z" style="fill: rgb(75, 75, 75);"></path>
	<path class="st0" d="M312.486,187.215c-5.047-6.5-14.195-6.5-19.238,0l-52.906,68.187c-5.336,6.871-15.129,6.414-19.906-0.934
		l-22.653-34.824c-5.043-7.746-15.527-7.746-20.566,0l-34.738,53.406c-5.976,9.188,0,21.95,10.282,21.95h56.855h37.188H368.74
		c10.782,0,16.61-13.875,9.618-22.883L312.486,187.215z" style="fill: rgb(75, 75, 75);"></path>
	<path class="st0" d="M212.322,179.527c13.371,0,24.211-10.84,24.211-24.214c0-13.375-10.84-24.215-24.211-24.215
		c-13.375,0-24.219,10.84-24.219,24.215C188.103,168.687,198.947,179.527,212.322,179.527z" style="fill: rgb(75, 75, 75);"></path>
	<path class="st0" d="M219.131,350.789c-1.762-1.789-3.93-3.199-6.512-4.226c-2.582-1.023-5.488-1.539-8.711-1.539h-24.289v62.118
		l-0.004,0.378h0.004v0.161h12.23v-23.586h12.058c3.223,0,6.129-0.511,8.711-1.539c2.582-1.023,4.75-2.434,6.512-4.222
		c1.758-1.789,3.109-3.871,4.046-6.25c0.938-2.375,1.41-4.883,1.41-7.524c0-2.641-0.473-5.148-1.41-7.523
		C222.24,354.66,220.889,352.578,219.131,350.789z M212.354,364.558c0,2.582-0.805,4.653-2.418,6.207
		c-1.618,1.554-3.829,2.328-6.645,2.328H191.85v-17.156h11.442c2.816,0,5.027,0.789,6.645,2.375
		C211.549,359.894,212.354,361.981,212.354,364.558z" style="fill: rgb(75, 75, 75);"></path>
	<path class="st0" d="M270.522,376c-0.371-0.367-0.914-0.539-1.324-0.867c-0.668-0.527-1.387-1-2.157-1.41
		c-0.488-0.262-0.832-0.675-1.359-0.89c-1.878-0.762-4.254-1.348-7.129-1.762l-7.481-1.145c-1.351-0.175-2.48-0.469-3.386-0.878
		c-0.91-0.41-1.687-0.906-2.332-1.497c-0.649-0.644-1.102-1.347-1.367-2.109c-0.262-0.762-0.394-1.555-0.394-2.379
		c0-2.168,0.778-4.031,2.332-5.586c1.554-1.555,3.973-2.332,7.262-2.332c2.051,0,4.222,0.25,6.512,0.746
		c2.285,0.5,4.398,1.688,6.336,3.566l7.488-7.406l0.141-0.136c0,0,0,0-0.004,0l0.117-0.114c-2.699-2.641-5.66-4.519-8.886-5.633
		s-7.012-1.672-11.352-1.672c-3.402,0-6.457,0.469-9.152,1.406c-2.699,0.942-4.988,2.246-6.863,3.918
		c-1.879,1.672-3.317,3.668-4.313,5.985c-1,2.316-1.496,4.882-1.496,7.699c0,5.34,1.496,9.446,4.489,12.32
		c1.406,1.352,3.078,2.45,5.015,3.301c1.934,0.852,4.313,1.481,7.129,1.891l7.477,1.144c1.586,0.234,2.758,0.5,3.523,0.793
		c0.762,0.294,1.465,0.734,2.11,1.321c1.289,1.289,1.938,3.019,1.938,5.191c0,2.523-0.942,4.457-2.817,5.809
		c-1.878,1.347-4.664,2.023-8.359,2.023c-2.875,0-5.606-0.382-8.183-1.145c-2.582-0.762-4.871-2.14-6.863-4.136l-7.922,7.922
		c3.051,3.11,6.438,5.266,10.164,6.465c3.726,1.203,7.965,1.805,12.715,1.805c3.285,0,6.351-0.426,9.195-1.274
		c2.848-0.851,5.313-2.082,7.394-3.699c2.082-1.614,3.711-3.59,4.883-5.938c1.171-2.347,1.762-5.046,1.762-8.098
		c0-2.816-0.383-5.336-1.145-7.566C273.451,379.402,272.221,377.527,270.522,376z" style="fill: rgb(75, 75, 75);"></path>
	<path class="st0" d="M331.858,363.371c-0.238-1.789-0.633-3.43-1.187-4.926c-0.559-1.496-1.309-2.918-2.246-4.27
		c-2.23-3.168-4.871-5.485-7.918-6.954c-3.054-1.465-6.718-2.199-11-2.199h-22.617v62.118v0.378l0,0v0.161h22.617
		c4.282,0,7.946-0.734,11-2.199c3.047-1.465,5.688-3.786,7.918-6.954c0.938-1.347,1.687-2.774,2.246-4.27
		c0.554-1.492,0.949-3.137,1.187-4.926c0.23-1.789,0.379-3.754,0.438-5.894c0.058-2.145,0.09-4.504,0.09-7.086
		c0-2.582-0.031-4.941-0.09-7.082C332.237,367.125,332.088,365.16,331.858,363.371z M318.963,390.519
		c-0.321,0.879-0.778,1.672-1.363,2.375c-2.055,2.582-5.106,3.875-9.153,3.875h-9.328v-40.832h9.328
		c4.047,0,7.098,1.289,9.153,3.871c0.586,0.703,1.042,1.496,1.363,2.374c0.324,0.879,0.574,1.954,0.75,3.211
		c0.176,1.262,0.293,2.789,0.352,4.578c0.058,1.789,0.086,3.914,0.086,6.378c0,2.466-0.027,4.59-0.086,6.379
		c-0.059,1.793-0.176,3.317-0.352,4.578S319.287,389.641,318.963,390.519z" style="fill: rgb(75, 75, 75);"></path>
</g>
</svg>
