<?xml version="1.0" encoding="utf-8"?>
<!-- Generator: Adobe Illustrator 26.0.3, SVG Export Plug-In . SVG Version: 6.00 Build 0)  -->
<svg version="1.1" id="レイヤー_1" xmlns="http://www.w3.org/2000/svg" xmlns:xlink="http://www.w3.org/1999/xlink" x="0px"
	 y="0px" viewBox="0 0 273.99 74.56" style="enable-background:new 0 0 273.99 74.56;" xml:space="preserve">
<style type="text/css">
	.st0{fill:#95786C;}
</style>
<g>
	<path class="st0" d="M33.74,24.94l-1.27,0c0.27-2.68,0.41-4.41,0.41-5.17c0-1.05-0.18-1.84-0.53-2.35
		c-0.36-0.51-1.04-0.77-2.04-0.77l-1.5,0.04l-0.49-0.05l-4.7-0.01c-0.1,0.73-0.35,2.6-0.77,5.6c-0.87,6.19-1.53,11.27-1.98,15.23
		l4.58,0.01c1.11,0,1.83-0.22,2.17-0.66c0.33-0.45,0.61-1.58,0.83-3.4l1.27,0c-0.5,4.02-0.93,8.22-1.31,12.6l-1.29,0
		c0.11-1.82,0.17-2.89,0.17-3.21c0-0.77-0.18-1.34-0.56-1.73c-0.22-0.22-0.81-0.37-1.79-0.44l-4.49-0.01
		c-0.47,4.44-1.08,9.23-1.83,14.37c-0.75,5.14-1.4,9.11-1.94,11.92c1.25,0.42,2.37,0.63,3.36,0.63c0.64,0,1.28-0.09,1.9-0.28
		l-0.41,2.73c-0.46,0.09-0.88,0.14-1.27,0.14c-0.35,0-1.43-0.12-3.25-0.34c-1.08-0.16-2-0.25-2.75-0.25c-1.52,0-3.15,0.28-4.88,0.85
		l0.29-2.63c1.4-0.6,2.32-1.24,2.77-1.91c0.45-0.67,0.79-1.48,1.03-2.44c0.49-1.95,1.42-7.98,2.78-18.1l3.69-28.68
		c-2.1,0.12-3.95,1.07-5.53,2.86c-1.58,1.78-2.85,4.18-3.79,7.2c-0.94,3.02-1.42,6.07-1.43,9.17c0,1.25,0.07,2.52,0.22,3.83
		c0.08,0.74,0.29,1.79,0.65,3.16c0.45,1.69,0.67,2.88,0.67,3.55c0,0.67-0.14,1.25-0.4,1.75c-0.27,0.49-0.61,0.74-1.04,0.74
		c-0.63,0-1.14-0.67-1.52-2.02C7.25,45.06,6.99,42.53,7,39.24c0.02-6.42,1.27-12.32,3.75-17.71c2.48-5.36,5.74-8.03,9.77-8.02
		l9.04,0.03c1,0,2.11-0.12,3.32-0.37c0.36-0.06,1.14-0.4,2.33-1C34.39,18.83,33.9,23.09,33.74,24.94z"/>
	<path class="st0" d="M49.58,30.59l3.35,0.01l-2.26,16.74c-1.33,9.72-2,15.25-2,16.59c0,0.61,0.07,1.07,0.21,1.39
		c0.14,0.32,0.3,0.48,0.47,0.48c0.27,0,0.58-0.24,0.94-0.72c0.52-0.73,1.51-2.58,2.96-5.55l0.77,1.78c-3.17,6.67-5.51,10-7,9.99
		c-0.5,0-0.93-0.39-1.28-1.18c-0.35-0.78-0.52-1.89-0.52-3.33c0-1.66,0.18-3.88,0.53-6.66c-1.41,3.25-3.14,6.11-5.2,8.56
		c-1.37,1.62-2.56,2.44-3.56,2.43c-0.55,0-0.98-0.37-1.29-1.11c-0.31-0.74-0.47-1.9-0.46-3.5c0-1.25,0.08-2.59,0.22-4.03
		c0.21-2.01,0.74-6.06,1.59-12.13c1.07-7.7,1.61-12.32,1.62-13.86c0-0.9-0.15-1.34-0.47-1.34c-0.28,0-0.67,0.29-1.16,0.88
		c-0.49,0.59-1.32,2.02-2.51,4.28l-1.03-1.68c2.11-3.83,3.73-6.34,4.84-7.53c1.11-1.19,2-1.79,2.68-1.79c0.38,0,0.68,0.28,0.92,0.84
		c0.23,0.56,0.35,1.43,0.35,2.61c-0.01,2.21-0.59,7.63-1.74,16.26C39.51,56.81,39,61.23,39,62.32c0,0.67,0.1,1.25,0.31,1.73
		c0.21,0.48,0.44,0.72,0.69,0.72c0.88,0,2.13-1.47,3.75-4.42s2.69-6.31,3.2-10.08L49.58,30.59z"/>
	<path class="st0" d="M60.09,69.67l-3.51-0.01l1.69-12.88c0.82-6.32,1.53-12.32,2.15-18.01c0.15-1.4,0.22-2.28,0.22-2.63
		c0-0.77-0.17-1.15-0.51-1.15c-0.24,0-0.6,0.33-1.09,0.98c-0.49,0.65-1.37,2.27-2.65,4.85l-0.72-1.68c1.52-3.28,3.02-5.75,4.53-7.39
		c1.5-1.64,2.65-2.46,3.45-2.46c0.28,0,0.51,0.14,0.67,0.41c0.16,0.27,0.25,0.62,0.24,1.03c0,0.42-0.11,1.52-0.32,3.32l-1.05,8.62
		c1.6-5.09,3.41-9.45,5.42-13.06c0.96-1.73,1.77-2.59,2.41-2.59c0.47,0,0.86,0.31,1.18,0.94c0.31,0.62,0.47,1.35,0.47,2.18
		c0,0.86-0.16,1.6-0.47,2.2c-0.31,0.61-1.07,1.32-2.3,2.15c-1.16,0.8-2.11,1.75-2.84,2.87c-0.73,1.12-1.54,2.82-2.41,5.12
		c-0.88,2.3-1.49,4.3-1.84,6.01s-0.89,5.67-1.61,11.9L60.09,69.67z"/>
	<path class="st0" d="M70.98,40.67l-0.8-1.68c2.02-3.91,3.63-6.5,4.83-7.79c1.2-1.28,2.22-1.92,3.07-1.92
		c0.33,0,0.59,0.15,0.78,0.43c0.19,0.29,0.28,0.62,0.28,1.01c0,0.29-0.04,0.8-0.12,1.53l-1.09,9.64c1.61-3.61,3.62-6.97,6.05-10.1
		c1.29-1.63,2.35-2.44,3.18-2.44c0.61,0,1.09,0.4,1.43,1.2s0.51,1.95,0.51,3.45c0,0.99-0.08,2.11-0.22,3.35
		c-0.26,2.08-0.93,6.59-2.01,13.55c-1.02,6.51-1.53,10.84-1.54,12.98c0,0.66,0.04,1.15,0.14,1.47c0.09,0.33,0.23,0.49,0.4,0.49
		c0.45,0,1.17-0.89,2.15-2.68c0.69-1.27,1.39-2.45,2.08-3.54l0.58,1.73c-1.45,3.24-2.96,5.84-4.52,7.8c-0.99,1.27-1.81,1.9-2.45,1.9
		c-0.6,0-1.06-0.44-1.38-1.32c-0.33-0.88-0.49-2.31-0.48-4.29c0.01-2.84,0.9-9.91,2.67-21.21c0.55-4.02,0.82-6.37,0.82-7.04
		c0-0.99-0.29-1.49-0.87-1.49c-0.63,0-1.44,0.67-2.43,2.01c-1.48,1.98-2.72,4.31-3.72,6.99c-0.63,1.73-1.17,4.47-1.6,8.25
		l-1.96,16.74l-3.51-0.01c0.67-4.79,1.26-9.38,1.76-13.76l2.15-18.22c0.08-0.73,0.12-1.26,0.12-1.58c0-0.86-0.15-1.29-0.47-1.3
		c-0.25,0-0.61,0.34-1.09,1.01C72.75,37.16,71.83,38.77,70.98,40.67z"/>
	<path class="st0" d="M93.2,40.59l-1.03-1.63c1.58-3.51,3.02-6,4.31-7.48c1.3-1.48,2.4-2.22,3.31-2.22c0.5,0,0.88,0.23,1.15,0.67
		c0.26,0.45,0.4,1.06,0.39,1.82c0,0.93-0.52,4.85-1.56,11.78c-1.69,11.33-2.54,18.16-2.55,20.5c0,0.45,0.05,0.82,0.16,1.13
		s0.23,0.46,0.35,0.46c0.5,0,1.79-1.97,3.88-5.93l0.91,1.82c-2.16,4.11-3.74,6.74-4.73,7.89c-0.99,1.15-1.8,1.72-2.43,1.72
		c-0.55,0-0.98-0.35-1.3-1.06c-0.32-0.7-0.48-1.68-0.47-2.92c0.01-3.99,1.22-13.75,3.62-29.26c0.11-0.73,0.17-1.39,0.17-1.96
		c0-0.64-0.14-0.96-0.42-0.96c-0.31,0-0.67,0.25-1.07,0.76C95.48,36.22,94.59,37.85,93.2,40.59z M102.54,8.9
		c0.49,0,0.89,0.33,1.2,0.99c0.31,0.66,0.47,1.49,0.46,2.52c0,1.41-0.25,2.64-0.73,3.71c-0.48,1.07-1.02,1.6-1.62,1.6
		c-0.47,0-0.86-0.34-1.17-1.01c-0.31-0.67-0.47-1.55-0.46-2.64c0-1.44,0.23-2.66,0.69-3.66C101.37,9.4,101.91,8.9,102.54,8.9z"/>
	<path class="st0" d="M110.65,22.15l3.75-2.91l-1.73,13.4l4.87,0.01l-0.39,3.4l-4.88-0.01l-2.1,16.05c-0.67,4.82-1,8.17-1.01,10.05
		c0,0.86,0.09,1.49,0.27,1.87c0.18,0.38,0.43,0.58,0.74,0.58c0.49,0,1.23-0.59,2.24-1.77c1.32-1.56,2.58-3.33,3.78-5.31l0.89,2.21
		c-3.45,5.26-5.76,8.48-6.93,9.66c-1.16,1.18-2.1,1.77-2.81,1.76c-0.58,0-1.04-0.43-1.37-1.3c-0.34-0.86-0.5-2.27-0.49-4.22
		c0.01-2.3,0.31-5.81,0.92-10.54l2.45-19.06l-3.81-0.01l0.43-3.4l3.82,0.01L110.65,22.15z"/>
	<path class="st0" d="M135.35,30.84l3.35,0.01l-2.26,16.74c-1.33,9.72-2,15.25-2,16.59c0,0.61,0.07,1.07,0.21,1.39
		c0.14,0.32,0.3,0.48,0.47,0.48c0.27,0,0.58-0.24,0.94-0.72c0.52-0.73,1.51-2.58,2.96-5.55l0.77,1.78c-3.17,6.67-5.51,10-7,9.99
		c-0.5,0-0.93-0.39-1.28-1.18c-0.35-0.78-0.52-1.89-0.52-3.33c0-1.66,0.18-3.88,0.53-6.66c-1.41,3.25-3.14,6.11-5.2,8.56
		c-1.37,1.62-2.56,2.44-3.56,2.43c-0.55,0-0.98-0.37-1.29-1.11c-0.31-0.74-0.47-1.9-0.46-3.5c0-1.25,0.08-2.59,0.22-4.03
		c0.21-2.01,0.74-6.06,1.59-12.13c1.07-7.7,1.61-12.32,1.62-13.86c0-0.9-0.15-1.34-0.47-1.34c-0.28,0-0.67,0.29-1.16,0.88
		c-0.49,0.59-1.32,2.02-2.51,4.28l-1.03-1.68c2.11-3.83,3.73-6.34,4.84-7.53c1.11-1.19,2-1.79,2.68-1.79c0.38,0,0.68,0.28,0.92,0.84
		c0.23,0.56,0.35,1.43,0.35,2.61c-0.01,2.21-0.59,7.63-1.74,16.26c-1.03,7.77-1.54,12.2-1.55,13.28c0,0.67,0.1,1.25,0.31,1.73
		c0.21,0.48,0.44,0.72,0.69,0.72c0.88,0,2.13-1.47,3.75-4.42s2.69-6.31,3.2-10.08L135.35,30.84z"/>
	<path class="st0" d="M145.86,69.92l-3.51-0.01l1.69-12.88c0.82-6.32,1.53-12.32,2.15-18.01c0.14-1.4,0.22-2.28,0.22-2.63
		c0-0.77-0.17-1.15-0.51-1.15c-0.24,0-0.6,0.33-1.09,0.98c-0.49,0.65-1.37,2.27-2.65,4.85l-0.72-1.68c1.51-3.28,3.02-5.75,4.53-7.39
		c1.5-1.64,2.65-2.46,3.45-2.46c0.28,0,0.5,0.14,0.67,0.41c0.16,0.27,0.25,0.62,0.24,1.03c0,0.42-0.11,1.52-0.32,3.32l-1.05,8.62
		c1.6-5.09,3.41-9.45,5.42-13.06c0.96-1.73,1.77-2.59,2.41-2.59c0.47,0,0.86,0.31,1.18,0.94c0.31,0.62,0.47,1.35,0.47,2.18
		c0,0.86-0.16,1.6-0.47,2.2c-0.31,0.61-1.07,1.32-2.3,2.15c-1.16,0.8-2.11,1.75-2.84,2.87c-0.73,1.12-1.54,2.82-2.41,5.12
		c-0.88,2.3-1.49,4.3-1.84,6.01c-0.35,1.71-0.89,5.67-1.61,11.9L145.86,69.92z"/>
	<path class="st0" d="M168.33,57.96l0.77,2.11c-3.87,7.43-7.17,11.14-9.92,11.13c-1.11,0-1.96-0.77-2.55-2.31
		c-0.58-1.54-0.87-3.99-0.86-7.38c0.02-6.83,1.06-13.63,3.12-20.4c2.31-7.69,5.06-11.53,8.25-11.52c1.11,0,1.96,0.57,2.55,1.71
		c0.59,1.14,0.88,2.69,0.87,4.67c-0.01,2.08-0.37,4.12-1.08,6.13c-0.71,2.01-1.98,4.1-3.81,6.26c-0.91,1.05-2.86,2.95-5.85,5.68
		c-0.15,1.72-0.22,3.37-0.23,4.93c-0.01,2.27,0.16,3.85,0.52,4.74c0.35,0.9,0.86,1.34,1.54,1.35c0.64,0,1.35-0.36,2.12-1.1
		C164.81,62.99,166.33,60.99,168.33,57.96z M160.11,50.99c2.53-2.29,4.44-4.76,5.72-7.41c0.87-1.85,1.31-3.69,1.31-5.5
		c0-1.37-0.17-2.47-0.52-3.28c-0.35-0.82-0.81-1.22-1.37-1.23c-0.58,0-1.15,0.44-1.7,1.34c-0.74,1.18-1.37,2.97-1.88,5.36
		C160.94,43.77,160.42,47.35,160.11,50.99z"/>
	<path class="st0" d="M172.88,47.96l10.92,0.03l-0.58,4.74l-10.97-0.03L172.88,47.96z"/>
	<path class="st0" d="M196.28,29.78c1.4,0,2.47,0.56,3.23,1.66c0.76,1.1,1.13,2.37,1.13,3.81c0,0.86-0.17,1.61-0.49,2.25
		c-0.32,0.64-0.71,0.96-1.17,0.96c-0.3,0-0.56-0.14-0.78-0.41c-0.22-0.27-0.53-0.95-0.94-2.04c-0.76-2.08-1.52-3.12-2.27-3.12
		c-0.64,0-1.21,0.5-1.71,1.5c-0.5,1-0.75,2.26-0.75,3.75c0,1.31,0.15,2.58,0.46,3.81c0.31,1.23,1.1,3.22,2.36,5.96
		c1.73,3.77,2.59,7.34,2.58,10.73c-0.01,3.38-0.72,6.34-2.15,8.87c-1.42,2.53-3.24,3.79-5.47,3.79c-1.87-0.01-3.26-0.78-4.16-2.34
		c-0.91-1.55-1.36-3.46-1.35-5.73c0-1.12,0.18-2.04,0.53-2.78c0.35-0.73,0.77-1.1,1.27-1.1c0.44,0,0.81,0.3,1.13,0.89
		c0.31,0.59,0.47,1.29,0.47,2.09c0,0.32-0.01,0.73-0.04,1.24c-0.01,0.42-0.02,0.77-0.02,1.05c0,1.05,0.21,1.95,0.65,2.69
		c0.42,0.74,1,1.1,1.73,1.11c0.85,0,1.59-0.29,2.23-0.88c0.64-0.59,1.15-1.48,1.51-2.68c0.36-1.19,0.55-2.38,0.55-3.56
		c0-1.15-0.16-2.3-0.5-3.45c-0.33-1.15-1.09-3.05-2.25-5.7c-1.62-3.7-2.43-7.26-2.42-10.68c0.01-3.13,0.64-5.86,1.88-8.2
		C192.79,30.94,194.37,29.77,196.28,29.78z"/>
	<path class="st0" d="M207.98,22.43l3.75-2.91L210,32.93l4.87,0.01l-0.39,3.4l-4.88-0.01l-2.1,16.05c-0.67,4.82-1,8.17-1.01,10.05
		c0,0.86,0.09,1.49,0.27,1.87c0.18,0.38,0.43,0.58,0.74,0.58c0.49,0,1.23-0.59,2.24-1.77c1.32-1.56,2.58-3.33,3.78-5.31l0.89,2.21
		c-3.45,5.26-5.76,8.48-6.93,9.66c-1.17,1.18-2.1,1.77-2.81,1.76c-0.58,0-1.04-0.43-1.37-1.3c-0.34-0.86-0.5-2.27-0.49-4.22
		c0.01-2.3,0.31-5.81,0.93-10.54l2.45-19.06l-3.81-0.01l0.43-3.4l3.82,0.01L207.98,22.43z"/>
	<path class="st0" d="M228.46,29.87c1.54,0,2.81,1.25,3.83,3.75c1.01,2.49,1.51,5.96,1.5,10.4c-0.02,7.09-1.26,13.45-3.73,19.08
		s-5.06,8.44-7.79,8.43c-1.68,0-3.03-1.13-4.05-3.37c-1.02-2.24-1.53-5.29-1.51-9.15c0.02-6.71,0.98-12.9,2.88-18.58
		C221.97,33.38,224.93,29.86,228.46,29.87z M226.45,33.46c-1.33,0-2.63,1.93-3.89,5.81c-1.26,3.88-1.9,9.23-1.92,16.07
		c-0.01,4.15,0.36,7.43,1.12,9.82c0.56,1.76,1.31,2.64,2.25,2.64c1.32,0,2.52-1.65,3.62-4.97c1.39-4.31,2.1-9.65,2.12-16.04
		c0.01-4.79-0.29-8.21-0.92-10.25C228.2,34.48,227.41,33.46,226.45,33.46z"/>
	<path class="st0" d="M240.3,70.19l-3.51-0.01l1.69-12.88c0.82-6.32,1.53-12.32,2.15-18.01c0.14-1.4,0.22-2.28,0.22-2.63
		c0-0.77-0.17-1.15-0.51-1.15c-0.24,0-0.6,0.33-1.09,0.98c-0.49,0.65-1.37,2.27-2.65,4.85l-0.72-1.68c1.51-3.28,3.02-5.75,4.53-7.39
		c1.5-1.64,2.65-2.46,3.45-2.46c0.28,0,0.5,0.14,0.67,0.41c0.16,0.27,0.25,0.62,0.24,1.03c0,0.42-0.11,1.52-0.32,3.32l-1.05,8.62
		c1.6-5.09,3.41-9.45,5.42-13.06c0.96-1.73,1.77-2.59,2.41-2.59c0.47,0,0.86,0.31,1.18,0.94c0.31,0.62,0.47,1.35,0.47,2.18
		c0,0.86-0.16,1.6-0.47,2.2c-0.31,0.61-1.07,1.32-2.3,2.15c-1.16,0.8-2.11,1.75-2.84,2.87c-0.73,1.12-1.54,2.82-2.41,5.12
		c-0.88,2.3-1.49,4.3-1.84,6.01c-0.35,1.71-0.89,5.67-1.61,11.9L240.3,70.19z"/>
	<path class="st0" d="M262.77,58.23l0.77,2.11c-3.87,7.43-7.17,11.14-9.92,11.13c-1.11,0-1.96-0.77-2.55-2.31
		c-0.58-1.54-0.87-3.99-0.86-7.38c0.02-6.83,1.06-13.63,3.12-20.4c2.31-7.69,5.06-11.53,8.25-11.52c1.11,0,1.96,0.57,2.55,1.71
		c0.59,1.14,0.88,2.69,0.87,4.67c-0.01,2.08-0.37,4.12-1.08,6.13c-0.71,2.01-1.98,4.1-3.81,6.26c-0.91,1.05-2.86,2.95-5.85,5.68
		c-0.15,1.72-0.22,3.37-0.23,4.93c-0.01,2.27,0.16,3.85,0.52,4.74c0.35,0.9,0.86,1.34,1.54,1.35c0.64,0,1.35-0.36,2.12-1.1
		C259.25,63.27,260.77,61.26,262.77,58.23z M254.55,51.26c2.53-2.29,4.44-4.76,5.72-7.41c0.87-1.85,1.31-3.69,1.31-5.5
		c0-1.37-0.17-2.47-0.52-3.28c-0.35-0.82-0.81-1.22-1.37-1.23c-0.58,0-1.15,0.44-1.7,1.34c-0.74,1.18-1.37,2.97-1.88,5.36
		C255.38,44.05,254.86,47.62,254.55,51.26z"/>
</g>
</svg>
