<?xml version="1.0" encoding="utf-8"?>
<!-- Generator: Adobe Illustrator 26.2.1, SVG Export Plug-In . SVG Version: 6.00 Build 0)  -->
<svg version="1.1" id="layer_1" xmlns="http://www.w3.org/2000/svg" xmlns:xlink="http://www.w3.org/1999/xlink" x="0px"
	 y="0px" viewBox="0 0 796.7 211.5" style="enable-background:new 0 0 796.7 211.5;" xml:space="preserve">
<style type="text/css">
	.st0{fill:#95786C;stroke:#95786C;stroke-width:1.012;stroke-miterlimit:10;}
</style>
<g>
	<path class="st0" d="M101.9,38.4c29.6,0,43,13.1,43,30.5c0,26.8-25.1,39.7-49,39.7c-1.8,0-5.7-0.4-8.2-0.9L74.4,105l-6.1,29.4
		c-2.9,13.6-2,15.6,16.7,16.9l-1,5.1H28.7l1.2-5.1c15.9-1.3,18.4-2.4,21.4-17.4l16.1-73.6c3.1-14.1,2-15.2-15.7-16.7l1.2-5.1H101.9z
		 M75.8,99c2.9,0.7,9.4,2.4,16.7,2.4c14.7,0,34.1-7.8,34.1-32.4c0-15.4-9.4-24.5-25.9-24.5c-10.6,0-14.1,2.5-15.5,10.2L75.8,99z"/>
	<path class="st0" d="M231.7,102.8c0,18.9-10.6,38.2-28.6,48.4c-7.3,4-15.9,7.3-25.1,7.3c-19.4,0-27.3-13.8-27.3-28.3
		c0-25,15.1-43,32.8-50.8c6.5-2.9,14.9-4.9,21-4.9C221.7,74.5,231.7,84.5,231.7,102.8z M168,128.2c0,13.6,5.7,22.7,16.9,22.7
		c19.4,0,29.6-27.7,29.6-47.3c0-15-7.3-21.4-17.1-21.4C177,82.1,168,109.5,168,128.2z"/>
	<path class="st0" d="M248.4,91.7c10.2-10.7,21-17.2,26.9-17.2c6.9,0,6.3,9.6,2.4,25.2l-1.2,4.9c11-16.7,25.1-30.1,33.2-30.1
		c4.9,0,9.4,3.6,9.4,8.2c0,4-4.3,9.4-8,11.6c-1.8,1.1-3.5,1.1-4.5,0c-2.2-2.2-4.3-5.3-6.7-5.3c-4.7,0-14.7,12.9-19.4,20.3
		c-7.1,11.4-10.8,28.1-14.9,45.5c-4.5,0.7-10.8,2.4-14.9,3.6l-1.4-1.3c4.9-16.7,12-44.2,14.9-57.5c2.2-10.2,1.6-11.8,0.2-11.8
		c-2,0-7.1,2.9-13.3,8.3L248.4,91.7z"/>
	<path class="st0" d="M377.7,83c-4.1,0.4-14.5,1.1-20.6,1.1c-9.2,37.7-12,49.3-13.1,54.7c-1,5.6,0.2,7.3,2,7.3
		c4.1,0,10.8-4.7,18.4-11.4l2.7,4.5c-6.5,8.9-22.4,19.2-31.2,19.2c-7.1,0-10.6-4.9-5.3-26.3l11.8-48h-16.3v-1.6l5.9-5.8h12.2
		l4.7-19.4c3.3-1.6,11.8-6.5,16.1-10l1.8,0.9c-2.4,7.3-5.7,19-8,28.5h22.6L377.7,83z"/>
	<path class="st0" d="M403.8,76.7c3.1-13.6,7.8-26.8,17.5-36.4c9.4-9.4,21.4-14.3,29.6-14.3c7.1,0,13.1,3.6,13.1,7.4
		c0,2.7-3.5,7.3-6.1,9.1c-1.6,1.1-3.3,1.3-4.7,0c-4.7-4.5-9.8-6.9-14.1-6.9c-7.8,0-13.3,7.6-19.6,41.1h23l-3.9,6.5
		c-3.5,0.2-14.9,0.9-20.4,0.9c-3.9,19.9-6.1,31.5-10.6,52.9c-6.9,32.1-14.5,44.6-25.7,54.9c-9,8.7-18.8,12-23.7,12
		c-7.5,0-13.1-3.4-13.1-8c0-3.1,2.9-7.8,6.3-10c1.4-0.9,3.1-0.9,3.9,0c4.1,3.1,8.2,6.2,13.3,6.2c11.6,0,15.1-12.7,22-48.8
		c4.9-24.7,8.2-41.3,11.4-59.3h-17.3l0.2-2.2l5.7-5.3H403.8z"/>
	<path class="st0" d="M521.3,102.8c0,18.9-10.6,38.2-28.6,48.4c-7.3,4-15.9,7.3-25.1,7.3c-19.4,0-27.3-13.8-27.3-28.3
		c0-25,15.1-43,32.8-50.8c6.5-2.9,14.9-4.9,21-4.9C511.3,74.5,521.3,84.5,521.3,102.8z M457.7,128.2c0,13.6,5.7,22.7,16.9,22.7
		c19.4,0,29.6-27.7,29.6-47.3c0-15-7.3-21.4-17.1-21.4C466.6,82.1,457.7,109.5,457.7,128.2z"/>
	<path class="st0" d="M574.3,139.8c-10.2,12.1-23.7,18.7-29.6,18.7c-5.1,0-8.2-3.6-4.1-21c7.3-31,15.3-63.8,21.8-91.7
		c1.6-7.3,1-8-6.3-8.5c-2.2-0.2-5.9-0.5-7.5-0.5l1.2-4.7c8.8-0.9,19.2-2.7,24.9-4.5c3.7-1.3,4.9-1.5,6.1-1.5c1.8,0,1.8,1.6,0.8,5.8
		c-9.2,34.8-19.2,76.1-25.9,106.4c-1.2,5.1-1,6.7,0.6,6.7c1.8,0,7.5-2.5,14.9-9.6L574.3,139.8z"/>
	<path class="st0" d="M627.8,140.5c-10.2,12.1-23,17.9-29.2,17.9c-5.3,0-7.5-4.7-3.7-19.2c3.3-12,9-31.4,12.9-46
		c0.8-3.4,0.6-5.1-0.6-5.1c-2,0-8.2,3.6-13.5,8.2l-2.7-4.7c9.6-9.2,23.5-17,30-17c5.1,0,5.3,6.2,1.6,19.6
		c-3.9,13.1-8.8,31.4-12.4,44.2c-1.4,4.9-1.4,6.9,0,6.9c2,0,7.5-2.5,14.7-9.2L627.8,140.5z M633.5,45.5c0,5.6-4.5,10.5-10.8,10.5
		c-5.1,0-9-3.3-9-8.2c0-4.7,4.1-10.7,11.4-10.7C630.6,37.2,633.5,41,633.5,45.5z"/>
	<path class="st0" d="M725.1,102.8c0,18.9-10.6,38.2-28.6,48.4c-7.3,4-15.9,7.3-25.1,7.3c-19.4,0-27.3-13.8-27.3-28.3
		c0-25,15.1-43,32.8-50.8c6.5-2.9,14.9-4.9,21-4.9C715.1,74.5,725.1,84.5,725.1,102.8z M661.4,128.2c0,13.6,5.7,22.7,16.9,22.7
		c19.4,0,29.6-27.7,29.6-47.3c0-15-7.3-21.4-17.1-21.4C670.4,82.1,661.4,109.5,661.4,128.2z"/>
</g>
</svg>
