<?xml version="1.0" encoding="UTF-8"?><svg id="layer_1" xmlns="http://www.w3.org/2000/svg" viewBox="0 0 997.07 328.71"><defs><style>.b{stroke-width:1.1px;}.b,.c,.d{fill:#42210b;}.b,.d{stroke:#6f5436;stroke-miterlimit:10;}.d{stroke-width:1.06px;}</style></defs><path class="c" d="M152.67,28.44c-.18,.88-.36,1.77-.56,2.75-.08-.31-.2-.52-.18-.72,.77-6.78-5.77-9.12-11.36-6.79-14.17,5.93-24.06,16.75-33.04,28.57-26.18,34.43-44.91,72.75-59.17,113.42-6.92,19.73-15.05,39.12-18.45,59.86-1.64,10-3.21,20.47-1.95,30.36,1.78,14,7.94,22.91,25.22,18.52,16.09-4.08,28.59-13.94,39.92-25.42,14.85-15.05,28.03-31.47,39.13-49.51,1.44-2.34,2.47-4.96,4.08-7.16,.95-1.3,2.68-2.02,4.06-3,.72,1.52,2.19,3.12,2.04,4.55-.75,7.09-1.26,14.31-3.08,21.17-6.43,24.19-20.68,43.66-38.64,60.48-7.4,6.93-15.6,13.11-23.91,18.95-9.01,6.33-19.02,6.85-29.05,2.27-17.53-8-32.67-18.84-42.03-36.32-4.4-8.22-6.48-16.96-5.43-26.28,1.79-15.97,1.91-32.24,6.76-47.7,10.4-33.11,21.14-66.13,39.64-95.87,3.82-6.14,9.05-11.41,12.72-17.61,11.7-19.75,24.41-38.71,40.64-55.07,4.05-4.09,8.49-7.92,13.23-11.17,15.85-10.87,33.69-8.48,45.49,6.66,14.03,17.99,16.44,38.24,6.75,58.67-7.14,15.05-20.82,23.01-37.07,26.17-1.64,.32-3.53-.64-5.31-1,.73-1.35,1.43-2.71,2.18-4.04,1.88-3.36,3.83-6.68,5.65-10.08,5.81-10.88,13.97-20.46,17.58-32.58,2.15-7.23,5.49-14.14,4.13-22.07ZM42.68,155.6c16.18-33.93,32.89-67.56,53.28-99.22-24.88,29.27-40.77,63.36-53.28,99.22Z"/><path class="c" d="M291.61,223.76c-7.25,9.76-13.7,19.01-20.77,27.76-3.76,4.66-8.15,9.07-13.03,12.51-9.07,6.41-18.56,4.83-25.64-3.85-7.26-8.89-9.73-19.64-8.61-30.67,1.07-10.6,3.92-21.02,5.97-31.53,.38-1.93,.64-3.88,.96-5.81-.42-.18-.83-.35-1.25-.53-4.24,6.5-8.86,12.78-12.64,19.54-7.51,13.41-17.79,24.42-28.5,35.2-4.12,4.15-8.81,4.65-14.24,5.24-8.16,.88-12.53-2.98-15.99-9.36-4.79-8.83-4.91-18.37-3.54-27.81,3.41-23.4,11.62-45.02,26.17-63.85,2.85-3.69,7.15-6.27,10.87-9.25,1.92-1.54,4.09-2.77,6.04-4.29,9.71-7.52,21.18-6.32,28.06,3.88,4.08,6.05,6.66,13.1,9.78,19.43,3.66-3.16,7.58-7.23,12.16-10.35,7.09-4.84,14.03-3.57,19.56,2.67,4.42,4.98,4.36,10.13,1.68,16.04-4.65,10.25-10.07,20.41-12.83,31.2-3.23,12.62-3.99,25.88-5.73,38.87-.18,1.32,.14,2.76,.49,4.07,.9,3.4,2.98,4.49,5.76,2.33,3.77-2.93,7.65-6.09,10.38-9.93,11.73-16.49,23.15-33.2,34.43-50.01,2.02-3.01,2.74-6.87,4.26-10.25,2.01-4.47,4.26-8.83,6.33-13.26,.58-1.24,.91-2.59,1.38-3.89,6.67-18.57,13.35-37.14,20.02-55.71,.17-.48,.26-1,.62-2.45-9.21,.68-17.96,.97-26.61,2.05-13.97,1.73-27.76,.51-41.54-1.53-1.23-.18-2.28-1.57-3.42-2.39,1.17-.78,2.23-1.86,3.52-2.29,14.35-4.83,29.32-4.25,44.15-4.97,7.96-.39,15.93-.76,23.89-1.14,3.82-.18,6.03-1.88,7.58-5.7,3.98-9.81,8.38-19.47,13.04-28.98,1.78-3.63,4.77-6.66,7.09-10.05,1.85-2.71,3.54-5.52,5.25-8.32,4.08-6.69,7.71-13.69,12.28-20.02,6.52-9.02,23.69-11.69,33.14-5.76,3.48,2.19,4.52,5.65,2.48,8.81-3.11,4.82-5.78,10.06-9.6,14.25-6.5,7.14-11.89,14.9-16.32,23.42-2.58,4.96-5.31,9.83-7.9,14.78-2.6,4.99-5.11,10.03-7.92,15.55,1.4,.36,2.39,.84,3.36,.82,11.43-.28,22.86-.62,34.28-1.01,1.36-.05,2.69-.61,4.05-.71,1.27-.1,3.59-.17,3.68,.19,.38,1.47,.59,3.4-.08,4.66-1.94,3.63-5.33,5.49-9.4,5.87-1.76,.16-3.61,.05-5.34-.3-3.06-.62-5.65-.44-8.65,1.12-2.61,1.36-6.11,1.24-9.23,1.33-2.73,.08-5.48-.45-8.22-.74-8.69-.92-11.22,.75-14.3,8.72-4.95,12.8-9.98,25.58-15.18,38.27-15.85,38.65-29.17,78.1-37.77,119.04-.8,3.83-.75,7.94-.46,11.87,.22,2.9,2.13,4.51,5.24,2.76,2.48-1.4,6.24-1.52,5.83-5.91-.05-.57,.94-1.3,1.53-1.87,17.92-17.3,32.59-37.35,47.85-56.88,8.65-11.07,16.86-22.47,25.31-33.69,1.07-1.43,2.12-3.09,3.59-3.94,1.47-.85,3.91-1.61,5.08-.93,1.23,.71,2.27,3.36,1.93,4.82-.75,3.14-1.94,6.43-3.83,9.02-22.8,31.09-45.72,62.09-68.7,93.04-3.36,4.53-7.02,8.87-10.87,12.99-11.83,12.65-29.23,9.93-36.58-5.94-2.92-6.31-4.5-13.05-2.44-20.34,1.09-3.83,.13-8.2,.9-12.16,1.94-9.99,4.35-19.89,6.55-29.83,.23-1.05,.33-2.13,.6-3.9Zm-69.29-67.96l.49-.28c-.36-1.31-.62-2.65-1.08-3.91-2.21-5.98-6.14-7.53-11.12-3.57-3.33,2.65-6.18,6.24-8.37,9.93-3.08,5.19-5.04,11.03-8.04,16.28-8.76,15.32-12.15,32.14-14.4,49.33-.16,1.21-.1,2.5,.16,3.69,.6,2.81,2.31,3.89,4.72,1.98,2.35-1.87,4.69-3.92,6.46-6.31,10.95-14.82,21.85-29.69,32.46-44.76,1.35-1.92,1.56-5.24,1.11-7.69-.99-5.39-2.75-10.63-4.18-15.94-.08-.29,.04-.64,.11-1.45,.73,1.19,1.2,1.95,1.68,2.72Zm124.97-23.03c-15.21,32.12-27.95,65.24-36.03,100,12.01-33.33,24.02-66.67,36.03-100Zm11.65-28.12c.33,.15,.65,.3,.98,.45,4.51-9.8,9.03-19.6,13.54-29.4-.34-.15-.67-.31-1.01-.46-4.5,9.8-9.01,19.61-13.51,29.41Z"/><path class="b" d="M676.53,21.09c-.7,.93-1.38,2.27-2.43,3.17-1.77,1.51-3.69,2.89-5.7,4.08-6.95,4.11-13.84,8.36-21.01,12.05-3.61,1.86-7.72,2.93-11.72,3.83-15.43,3.45-30.88,6.8-46.38,9.93-5.11,1.03-10.36,1.33-15.56,1.9-3.01,.33-4.47,1.97-5.33,4.85-4.39,14.63-8.61,29.33-13.55,43.77-3.64,10.66-8.35,20.95-12.46,31.45-.81,2.07-1.09,4.34-1.67,6.73,22.4-.88,44.14-1.73,66.08-2.6,1.22,2.5-.07,4.36-2.02,5.82-.95,.71-2.23,1.1-3.42,1.36-15.12,3.31-30.26,6.5-45.36,9.87-6.4,1.43-12.75,3.08-19.06,4.87-3.74,1.06-4.87,4.44-5.24,7.75-1.15,10.28-4.96,19.71-8.86,29.11-.79,1.89-2.47,3.4-3.56,5.19-.63,1.03-1.01,2.26-1.35,3.44-6.07,20.81-11.91,41.7-18.31,62.4-1.67,5.41-4.94,10.36-7.8,15.33-.57,.99-2.6,1.5-4,1.61-8.88,.68-23.41-10.16-25.19-18.9-.41-2.03-.26-4.46,.46-6.39,3.27-8.77,6.9-17.4,10.3-26.12,8.04-20.62,16.04-41.25,24.01-61.89,.32-.82,.22-1.81,.25-2.11-4.36-1.82-8.49-3.23-12.32-5.23-2.76-1.44-4.85-3.9-4.05-7.41,.79-3.48,3.33-5.24,6.73-5.86,4.33-.79,8.66-1.58,12.99-2.34,3.33-.59,5.33-2.53,6.3-5.76,4.95-16.54,12.01-32.2,19.82-47.57,2.59-5.1,4.52-10.34,5.59-16.14,1.34-7.22,4.4-14.13,6.82-21.47-4.78-.36-9.42-.35-13.91-1.15-4-.71-8.05-1.9-11.71-3.64-4.2-1.98-5.61-5.8-4.86-10.42,.71-4.37,3.02-6.91,8.05-7.52,6.69-.81,13.44-1.08,20.16-1.57,1.24-.09,2.48-.08,3.71-.22,8.06-.97,8.13-1.09,10.24-8.78,.65-2.38,1.38-4.78,2.44-6.99,2.83-5.85,7.22-7.22,12.93-4.02,6.12,3.43,9.75,8.76,11.25,16.35,32.75-3.58,65.51-7.15,98.72-10.78Zm-172.82,203.71c.54,.21,1.09,.42,1.63,.63,5.85-15.28,11.71-30.55,17.56-45.83-.48-.18-.96-.37-1.44-.55-5.92,15.25-11.83,30.5-17.75,45.75Z"/><path class="b" d="M696.5,203.14c-7.49,1.03-15.28,1.23-22.82-3.05-4.37,6.25-8.63,12.45-13.02,18.56-6.03,8.38-12.11,16.74-18.3,25.01-1.72,2.3-3.76,4.41-5.87,6.36-7.94,7.33-14.96,7.45-24.34,2.06-8.34-4.79-12.92-12.61-17.47-20.24-3.03-5.08-3.53-11.34,.32-17.08,.78-1.16-.42-3.47,0-5.07,2.84-10.62,5.3-21.39,9-31.7,3.28-9.15,10.84-12.01,20.13-9.03,2.09,.67,4.14,1.51,6.11,2.47,7.39,3.58,8.55,6.95,2.88,12.83-4.16,4.33-6.55,9.18-8.48,14.54-3.2,8.89-6.54,17.74-9.53,26.71-.8,2.4-.83,5.17-.71,7.74,.2,4.41,3.23,6.52,7.38,5.03,2.55-.92,4.97-2.38,7.18-3.98,3.79-2.74,7.53-5.6,11-8.73,4.61-4.16,9.78-7.22,12.36-14.03,2.63-6.94,8.59-12.67,13.36-18.71,1.59-2.02,1.97-3.43,.8-5.81-5.92-11.97,4.72-31.1,18.04-32.13,3.54-.28,7.38,.61,10.72,1.89,1.42,.55,2.86,3.62,2.62,5.31-.36,2.58-1.34,4.92-3.75,7.32-3.63,3.62-5.73,9.31-7.1,14.49-.98,3.72,3.82,4.18,6.2,4.73,4.48,1.04,9.24,.8,13.87,1.28,3.67,.38,7.44,.61,10.93,1.67,8.06,2.44,10.19,7.18,6.84,14.9-3.34,7.7-7.26,15.15-10.43,22.91-5.83,14.26-11.41,28.63-16.81,43.05-.87,2.33-.27,5.2-.36,7.82,2.51-.75,5.45-.9,7.45-2.36,5.21-3.8,10.68-7.59,14.82-12.44,6.48-7.59,11.88-16.1,17.86-24.12,10.86-14.58,21.79-29.12,32.76-43.62,1.82-2.4,3.8-4.76,6.05-6.74,2.59-2.27,4.92-1.41,5.07,2.01,.12,2.63-.55,5.5-1.6,7.94-1.84,4.28-3.82,8.63-6.49,12.42-13.34,18.89-26.73,37.76-40.51,56.33-7.38,9.94-17.6,16.99-27.59,24.11-2.87,2.04-6.01,3.74-9.14,5.37-5.37,2.8-14.46-.32-18.79-6.6-4.77-6.9-7.35-14.66-6.11-23.03,1.26-8.47,3.58-16.5,7.64-24.42,6.92-13.48,11.96-27.93,17.81-41.99Z"/><path class="d" d="M635.88,135.5c1.28-.24,1.9-.36,3.34-.64-3.32,5.13-6.72,8.87-11.77,10.23-.84,.23-2.47-.53-2.86-1.33-1.16-2.38-2.1-4.96-2.73-7.57-.89-3.7,.58-6.59,3.27-8.87,3.38-2.86,5.17-6.62,6.14-11.24,.92-4.38,2.91-8.48,4.23-12.78,.84-2.72,1.57-5.56-1.37-7.65-.54-.39-.92-1.74-.77-2.49,1.1-5.32,6.24-9.1,11.5-8.63,6.91,.61,12.87,5.89,14.28,13.25,1.05,5.48-1.97,9.28-5.75,12.03-2.58,1.88-3.97,4.2-5.21,7.2-1.43,3.47-3.62,6.6-5.7,9.7-1.91,2.86-4.11,5.49-6.61,8.78Z"/><path class="c" d="M827.1,230.56c1.54-.45,2.87-.64,4.02-1.21,17.78-8.83,35.42-17.9,50.66-30.89,.62-.53,1.57-1.05,1.72-1.71,1.81-8.01,7.84-14.13,9.12-22.66,1.05-7.02,5.08-13.58,7.63-20.41,3.84-10.3,7.53-20.66,11.25-30.9-6.52,0-13.41-.84-20.03,.17-15.59,2.39-31.02,1.69-46.48-.57-1.72-.25-3.33-1.23-5-1.87,0-.51,0-1.01,0-1.52,2.08-.75,4.14-1.6,6.26-2.24,13.51-4.1,27.52-3.5,41.38-4.24,8.1-.44,16.21-.79,24.31-1.14,3.86-.17,6.08-1.94,7.62-5.68,3.97-9.67,8.2-19.25,12.82-28.63,1.97-4,5.24-7.34,7.78-11.08,1.84-2.71,3.42-5.6,5.12-8.4,3.93-6.45,7.44-13.23,11.92-19.27,6.64-8.97,23.15-11.67,32.78-6,4.39,2.58,4.87,6.35,1.92,10.35-3.81,5.16-6.43,11.44-10.96,15.77-6.36,6.08-9.96,13.67-14.16,20.96-4.99,8.67-9.4,17.67-13.98,26.57-1.86,3.61-1.4,4.28,2.73,4.17,10.88-.27,21.76-.59,32.63-.96,1.63-.06,3.23-.66,4.86-.77,1.25-.08,3.15-.23,3.62,.45,.62,.88,.51,2.74,0,3.85-1.89,4.12-5.5,6.59-9.83,6.36-6.03-.31-11.66-.03-17.57,1.81-4.08,1.27-8.99,.14-13.49-.32-11.48-1.15-12.16,2.5-15.15,10.5-1.58,4.23-2.56,8.71-4.39,12.82-19.81,44.5-36.24,90.14-46.95,137.73-1.05,4.67-1.74,9.51-1.8,14.28-.03,2,1.54,4.77,3.23,5.85,1.86,1.18,6.88-2.88,7.59-5.28,.26-.87,.91-1.7,1.57-2.35,21.85-21.59,39.67-46.52,58.52-70.6,5.51-7.04,10.54-14.47,15.95-21.6,1.93-2.54,4.12-6.25,7.92-4,3.83,2.26,1.93,6.12,.68,9.27-.8,2.03-1.96,3.96-3.23,5.74-16.06,22.38-31.98,44.86-48.33,67.01-8.51,11.52-17.79,22.47-26.76,33.64-1.29,1.61-2.71,3.13-4.2,4.56-5.33,5.12-10.72,10.44-19.12,7.67-9.1-3-16.29-8.38-18.73-18.11-1.37-5.48-1.19-11.08-.93-16.9,1.06-23.94,10.75-46.02,13.18-69.94-1.11,.7-2.39,1.52-3.69,2.32-11.51,7-22.97,14.09-34.55,20.96-5.15,3.05-5.65,3.98-4.54,11.16,2.08,13.48,2.19,26.85-1.95,40.07-9.07,28.95-41.39,41.98-67.87,27.26-7.3-4.06-10.74-10.35-13.35-18.35-3.37-10.32,1.93-17.1,7.14-23.82,9.4-12.14,21.97-20.84,35.07-28.53,12.75-7.49,13.13-8.01,8.68-22.12-3.3-10.49-6.73-21-5.87-32.3,.14-1.84-.79-3.74-1.03-5.64-.85-6.92-2.26-13.85-2.24-20.78,.02-9.85,11.02-22.8,20.44-25.31,7.08-1.89,13.15,3.12,12.5,10.41-.31,3.43-1.24,6.37-3.4,9.54-3.98,5.86-3.65,12.92-1.94,19.9,1.37,5.62,1.97,11.43,2.93,17.15,.2,1.22,.4,2.43,.66,3.64,1.73,7.91,3.47,15.82,5.31,24.17Zm-22.34,30.81c-.61-.23-1.22-.45-1.82-.68-2.95,2.33-5.83,4.76-8.87,6.98-6.43,4.7-13.13,9.06-19.38,13.97-6.29,4.94-10.79,11.35-12.91,19.18-1.09,4.03,.15,6.36,3.62,7.53,7.08,2.39,23.11-1.33,27.3-7.54,4.16-6.17,7.73-13.06,9.94-20.13,1.89-6.06,1.5-12.84,2.12-19.3Zm86.05-10.6c11.2-31.02,22.39-62.05,33.59-93.07-14.42,29.87-26.03,60.74-33.59,93.07Zm-97.61,69.92c10.29-2.05,19.63-5.65,24.93-15.57-7.01,7.25-15.46,12.19-24.93,15.57Zm161.13-228.71c-.29-.2-.59-.4-.88-.6-5.1,10.97-10.2,21.94-15.3,32.9,.34,.16,.68,.31,1.02,.47l15.16-32.76Z"/></svg>