<?xml version="1.0" encoding="UTF-8"?><svg xmlns="http://www.w3.org/2000/svg" viewBox="0 0 1089 365"><defs><style>.d{fill:#fff;}.e{fill:#fbf4d9;stroke:#f3f3f3;stroke-miterlimit:10;}.f{fill:#141414;}</style></defs><g id="a"/><g id="b"><path class="e" d="M.5,364.5V.5H1088.5V364.5H.5Zm306.36-108.27c.33,.14,.65,.28,.98,.43-1.8,7.73-3.88,15.4-5.33,23.19-1.49,7.96-1.93,16.12-3.61,24.03-3.03,14.29,7.2,31.4,21.54,34.09,3.71,.69,8.46-.25,11.73-2.16,4.34-2.53,8.07-6.43,11.41-10.3,28.65-33.24,52.91-69.76,78.35-105.4,2.01-2.82,3.18-6.64,3.56-10.12,.44-4-3.17-5.81-6.32-3.26-2.53,2.05-4.46,4.88-6.44,7.53-23.14,30.94-46.05,62.07-72.86,90.05-.96,1-1.15,2.83-2.19,3.63-2.6,2-5.48,3.63-8.25,5.41-1.18-2.15-3.14-4.24-3.34-6.48-.3-3.4,.34-6.98,1.06-10.37,8.93-41.79,22.55-82.09,38.72-121.58,5.42-13.22,10.6-26.54,15.77-39.86,2.83-7.28,5.24-8.89,13.2-8.46,5.48,.3,11.53,2.02,16.3,.28,5.69-2.08,10.82-1.75,16.39-1.49,4.98,.24,10.4-3.74,11.23-7.61,.51-2.37,.5-4.26-3-4.04-13.28,.82-26.56,1.47-39.85,2.12-1.21,.06-2.45-.39-4.41-.74,2.99-5.67,5.69-10.77,8.37-15.89,2.78-5.28,5.21-10.78,8.39-15.79,4.41-6.95,9.46-13.5,14.1-20.31,3.73-5.47,7.13-11.17,10.94-16.57,3.32-4.71,2.74-8.29-2.26-10.99-10.3-5.56-26.71-2.56-33.59,6.89-4.77,6.55-8.45,13.9-12.64,20.88-1.45,2.42-2.88,4.84-4.42,7.2-3.43,5.26-7.44,10.22-10.28,15.77-4.23,8.29-7.87,16.9-11.32,25.55-1.58,3.94-4.26,5.29-8.01,5.46-14.96,.71-29.96,1.04-44.89,2.19-8.22,.63-16.34,2.53-24.48,4.01-1.44,.26-2.75,1.24-4.12,1.88l.29,1.75c24.1,7.25,48.71,1.32,73.21,1.18-.1,1.09-.04,1.61-.2,2.05-7.03,19.68-14.09,39.35-21.14,59.02-.28,.78-.57,1.57-.95,2.31-1.92,3.81-3.88,7.6-5.79,11.41-4.15,8.29-7.99,16.75-12.53,24.83-3.5,6.23-7.56,12.19-11.89,17.88-7.65,10.05-15.56,19.92-23.72,29.56-1.41,1.67-4.6,1.83-6.96,2.69-.79-2.24-2.47-4.59-2.21-6.7,1.68-13.92,2.69-28.07,6.1-41.6,2.77-10.98,8.47-21.25,13.08-31.74,2.26-5.15,2.56-9.83-1.1-14.5-6.66-8.5-15.16-9.3-24.33-1.85-3.39,2.75-6.38,6.01-9.89,9.36-.73-2.27-1.06-4.11-1.89-5.68-3.24-6.12-6.01-12.65-10.17-18.1-4.63-6.06-13.71-8.25-19.97-4.6-8.66,5.05-18.19,9.34-24.28,17.88-15.49,21.73-25.17,45.72-26.95,72.53-.64,9.71,1.22,19.01,7.87,26.61,1.67,1.91,4.15,4.2,6.38,4.33,8.33,.49,16.94,.94,22.8-7,.29-.4,.7-.71,1.06-1.06,10.69-10.8,20.68-22.1,27.93-35.66,3.29-6.15,7.67-11.72,11.55-17.55l1.6,.77c-1.36,5.08-2.74,10.15-4.07,15.23-3.85,14.7-5.99,29.42-.16,44.15,8.13,20.58,24.81,24.06,39.79,7.78,7.3-7.93,13.42-16.95,19.98-25.55,2.18-2.85,4.08-5.92,6.11-8.88Zm564.97-15.74c-1.9-8.34-3.71-15.57-5.18-22.86-1.79-8.86-3.47-17.76-4.86-26.69-1.02-6.51-1.06-13.23,3.06-18.76,3.7-4.96,4.47-11.83,.82-16.46-3.36-4.25-8.42-4.81-14.41-1.58-14.18,7.63-20.35,20.9-17.25,37.46,.89,4.73,3.34,9.43,3.14,14.05-.56,12.67,3.19,24.33,6.84,36.08,3.39,10.92,2.49,13.25-7.59,18.77-.29,.16-.61,.29-.87,.49-11.48,8.77-23.71,16.74-34.2,26.57-7.94,7.45-14.71,16.51-10.18,29.53,2.37,6.83,5.33,12.5,11.31,16.34,11.25,7.22,23.82,8.71,36.54,6.38,18.57-3.39,29.44-15.94,35.46-33.03,4.95-14.05,4.28-28.59,1.88-42.98-.91-5.44,1.29-7.76,5.46-10.19,11.63-6.78,23.04-13.92,34.54-20.93,1.2-.73,2.39-1.48,4.14-2.56-.08,1.6,0,2.43-.18,3.2-3.47,15.42-7.12,30.8-10.42,46.26-2.72,12.79-5.32,25.7-2.37,38.82,2.52,11.18,10.59,17.17,21.01,19.7,3.42,.83,8.31-.22,11.19-2.28,5.2-3.71,10.07-8.32,13.92-13.44,25.21-33.53,50.12-67.28,75.1-100.99,1.08-1.46,2.09-3.04,2.79-4.72,1.45-3.48,4.01-7.76-.21-10.35-4.42-2.72-6.75,1.82-8.99,4.77-7.55,9.95-14.63,20.27-22.52,29.93-17.49,21.4-35.37,42.47-53.04,63.71-.88,1.05-.94,2.96-1.94,3.69-2.51,1.84-5.34,3.23-8.05,4.81-1.08-1.88-3.06-3.75-3.08-5.63-.03-4.45,.51-8.98,1.47-13.34,9.1-41.41,22.59-81.41,38.77-120.55,5.33-12.9,10.35-25.93,15.41-38.94,2.66-6.86,5.11-8.53,12.42-8.17,5.81,.29,12.13,1.96,17.31,.25,5.35-1.77,10.14-1.73,15.4-1.44,5.02,.28,9.04-2.16,11.44-6.62,.61-1.14,.45-2.94,.03-4.25-.17-.53-1.97-.8-3.01-.75-13.46,.61-26.91,1.31-40.37,1.92-.88,.04-1.79-.46-3.25-.86,5.57-10.69,10.57-21.14,16.36-31.13,4.11-7.1,9.33-13.55,13.97-20.35,3.82-5.6,7.38-11.38,11.27-16.93,3.13-4.47,2.56-8.07-2.11-10.76-9.74-5.61-26.68-2.9-33.33,6.13-5,6.79-8.84,14.43-13.22,21.68-1.46,2.41-2.91,4.83-4.48,7.17-3.3,4.94-7.23,9.56-9.9,14.82-4.29,8.44-7.98,17.22-11.5,26.02-1.63,4.07-4.34,5.58-8.35,5.74-12.47,.48-24.95,.86-37.41,1.52-10.61,.56-21.35,.49-31.47,4.56-1.51,.61-2.93,1.46-4.39,2.2,.11,.55,.22,1.1,.34,1.64,24.06,7.39,48.66,1.38,73.41,1.24-5.92,15.9-11.53,31-17.16,46.09-.93,2.49-1.97,4.93-2.95,7.4-3.07,7.76-6.1,15.54-9.23,23.28-.28,.69-1.14,1.19-1.82,1.65-9.47,6.46-18.75,13.26-28.52,19.24-8.33,5.1-17.23,9.26-27.01,14.44ZM4.22,267.13c-.48,8.79,1.95,16.81,5.98,24.48,7.99,15.2,20.86,25.08,35.38,33.5,14.83,8.59,28.87,8.91,42.8-1.66,20.66-15.68,38.47-33.89,50.73-57.01,7.02-13.26,11.48-27.3,11.75-42.42,.03-1.85-1.42-3.73-2.18-5.59-1.61,1.23-3.24,2.44-4.8,3.72-.35,.29-.44,.89-.69,1.31-15.26,25.67-33.52,48.91-56.63,67.98-8.66,7.14-18.49,12.49-29.74,14.62-6.27,1.19-12.69,1.44-17.2-3.79-4.12-4.78-7.2-10.66-6.94-17.17,.41-10.29,.34-20.85,2.72-30.75,4.12-17.1,9.53-33.92,15.16-50.6,13.75-40.68,31.04-79.69,56-114.95,11.11-15.7,21.88-31.82,40.53-39.67,3.22-1.35,8.02-2.23,10.69-.77,3.48,1.92,4.73,6.71,3.83,11.14-.69,3.41-1.75,6.75-2.6,10.13-3.79,15.05-13.53,27.04-20.7,40.35-1.66,3.08-3.51,6.04-5.15,9.13-.78,1.46-1.28,3.08-1.91,4.63,1.73,.26,3.56,1.02,5.18,.72,16.59-3.12,29.96-11.47,38.01-26.42,10.21-18.96,6.59-45.54-7.44-61.94-12.41-14.51-31.06-17.13-46.42-5.74-7.3,5.41-14.16,11.69-20.18,18.5-13.76,15.57-25.61,32.55-35.85,50.7-4.22,7.48-10.32,13.89-14.85,21.23-15.67,25.43-24.28,53.87-34.46,81.67-7.68,20.97-8.67,42.9-11.04,64.67ZM577.33,88.47c-4.03,12.37-7.64,25.22-12.42,37.63-6.38,16.59-13.77,32.79-20.49,49.25-1.49,3.64-3.61,5.85-7.41,6.47-4.1,.68-8.23,1.22-12.31,2.04-3.67,.74-7.19,2.71-6.99,6.62,.14,2.63,2.19,6.02,4.42,7.48,3.61,2.37,8.07,3.43,12.52,5.18-1.28,3.08-2.69,6.24-3.93,9.47-10.28,26.93-20.3,53.97-30.98,80.74-2.27,5.68-2.22,10.32,.97,14.99,5.17,7.54,12.87,11.47,21.53,13.34,1.9,.41,5.45-.81,6.23-2.32,3.8-7.31,7.53-14.78,10.16-22.57,7.6-22.54,12.51-45.94,22.35-67.81,3.91-8.69,5.44-18.42,8.49-27.53,.97-2.89,2.83-6.69,5.25-7.66,6.24-2.5,12.98-3.81,19.58-5.3,15.68-3.53,31.4-6.88,47.1-10.34,.96-.21,2.15-.53,2.69-1.22,1.31-1.69,2.3-3.63,3.89-6.24-23.92,.95-46.22,1.83-69.25,2.74,.68-2.72,1.05-5.29,1.98-7.65,2.86-7.27,6.35-14.32,8.83-21.72,5.67-16.87,11.3-33.77,16.08-50.9,2.07-7.41,6.26-9.27,13.09-9.97,28.5-2.93,56.65-7.42,81.94-22.28,4.3-2.53,8.75-4.82,12.94-7.53,1.94-1.26,3.42-3.24,5.51-5.28-34.66,3.75-68.3,7.4-102.17,11.06-1.81-7.37-5.23-12.92-11.26-16.52-5.93-3.53-11.09-2.01-13.97,4.23-1.18,2.55-2.17,5.29-2.59,8.05-.82,5.49-4.11,7.41-9.22,7.72-8.31,.49-16.62,1.12-24.91,1.9-4.74,.45-8.01,2.77-8.97,7.87-.93,4.96,1,8.46,4.99,11,1.52,.97,3.28,1.83,5.03,2.1,6.85,1.09,13.75,1.93,21.25,2.94Zm168.87,129.45c-.46,1.01-1.23,2.63-1.95,4.28-5.25,12.03-10.72,23.97-15.66,36.13-3.27,8.05-6.38,16.27-8.44,24.68-2.16,8.8,.53,17.21,5.36,24.75,4.64,7.25,14.42,10.99,20.23,7.67,12.74-7.28,25.38-15.16,34.41-26.79,15.72-20.23,30.5-41.19,45.37-62.07,3.14-4.41,5.47-9.6,7.2-14.75,.86-2.56-.48-5.86-.83-8.82-2.3,1.31-4.6,2.61-6.88,3.94-.27,.16-.45,.49-.65,.75-17.34,22.81-34.97,45.41-51.81,68.59-4.52,6.23-9.7,11.29-15.74,15.59-2.74,1.95-6.43,2.58-9.69,3.8,.4-3.49,.06-7.27,1.32-10.42,7.79-19.46,15.93-38.77,23.97-58.13,.89-2.15,1.93-4.24,2.83-6.39,3.75-9,1.65-14.01-7.93-16.42-5.56-1.4-11.53-1.05-17.26-1.86-3.71-.52-7.46-1.39-10.9-2.8-1.28-.53-2.87-3.56-2.4-4.56,2.19-4.67,4.42-9.6,7.84-13.35,3.26-3.58,4.7-11.11,.78-12.73-3.44-1.42-7.4-2.58-11.03-2.35-14.02,.92-25.2,20.52-19.19,33.27,1.18,2.51,.83,3.94-.89,6.09-4.89,6.09-10.72,11.98-13.57,19-2.61,6.45-7.28,9.83-11.89,13.83-3.27,2.83-6.71,5.48-10.15,8.12-2.11,1.62-4.25,3.26-6.57,4.53-6.57,3.59-10.98,.98-10.49-6.43,.25-3.76,1.18-7.59,2.45-11.16,2.28-6.4,5.63-12.47,7.48-18.98,1.94-6.83,4.52-12.84,9.63-18.03,2.16-2.19,5.21-5.89,1.97-9.68-9.93-11.61-28.27-8.64-33.2,5.64-3.25,9.41-5.49,19.17-7.98,28.83-.59,2.31,.36,5.19-.64,7.19-3.47,6.98-2.59,13.49,1.27,19.77,2,3.25,4.81,5.99,6.82,9.23,4.25,6.83,10.8,10.05,18.07,12.38,4.84,1.55,9.55,.99,13.08-2.44,5.46-5.29,10.77-10.86,15.35-16.9,9.23-12.17,17.93-24.74,25.94-35.89,8.62,1.01,16.25,1.91,24.36,2.86Zm-61.22-63.89l-.56-.47c1.03-1.38,2.05-2.76,3.08-4.14,2.32-3.1,5.38-5.89,6.8-9.36,1.79-4.39,4.42-7.44,8.16-10.19,3.58-2.63,5.89-6.49,4.86-11.29-2.17-10.17-13.79-16.2-23.44-12.13-1.05,.44-1.66,1.94-2.47,2.95-2.43,3.03-5.01,6-.31,9.37,.51,.37,.52,2.03,.2,2.88-3.72,9.96-4.64,21.18-13.36,28.91-1.38,1.22-2.72,3.79-2.39,5.38,.8,3.88,2.59,7.56,3.98,11.31,3.48-1.55,7.18-2.75,10.37-4.77,2.25-1.43,3.49-5.15,5.74-5.77,5.21-1.42,6.49-5.5,7.87-10.02l-8.54,7.34Z"/><path d="M309.03,253.25c-2.03,2.97-3.93,6.03-6.11,8.88-6.56,8.59-12.68,17.62-19.98,25.55-14.98,16.28-31.66,12.79-39.79-7.78-5.82-14.73-3.68-29.45,.16-44.15,1.33-5.08,2.71-10.15,4.07-15.23l-1.6-.77c-3.88,5.83-8.26,11.4-11.55,17.55-7.26,13.56-17.24,24.86-27.93,35.66-.35,.36-.76,.67-1.06,1.06-5.86,7.94-14.48,7.49-22.8,7-2.23-.13-4.71-2.42-6.38-4.33-6.65-7.6-8.51-16.91-7.87-26.61,1.77-26.81,11.45-50.79,26.95-72.53,6.09-8.54,15.61-12.83,24.28-17.88,6.26-3.65,15.34-1.47,19.97,4.6,4.16,5.45,6.92,11.98,10.17,18.1,.83,1.57,1.15,3.41,1.89,5.68,3.52-3.36,6.5-6.61,9.89-9.36,9.17-7.45,17.67-6.65,24.33,1.85,3.66,4.67,3.36,9.35,1.1,14.5-4.61,10.49-10.31,20.76-13.08,31.74-3.41,13.53-4.41,27.67-6.1,41.6-.26,2.11,1.43,4.46,2.21,6.7,2.37-.86,5.55-1.02,6.96-2.69,8.16-9.64,16.06-19.51,23.72-29.56,4.33-5.69,8.39-11.65,11.89-17.88,4.53-8.07,8.37-16.54,12.53-24.83,1.91-3.81,3.87-7.6,5.79-11.41,.37-.74,.67-1.53,.95-2.31,7.06-19.67,14.11-39.34,21.14-59.02,.16-.44,.1-.96,.2-2.05-24.5,.14-49.11,6.07-73.21-1.18l-.29-1.75c1.37-.65,2.68-1.62,4.12-1.88,8.14-1.47,16.26-3.38,24.48-4.01,14.93-1.14,29.92-1.48,44.89-2.19,3.74-.18,6.43-1.52,8.01-5.46,3.46-8.65,7.09-17.26,11.32-25.55,2.84-5.56,6.85-10.51,10.28-15.77,1.54-2.36,2.97-4.78,4.42-7.2,4.18-6.98,7.86-14.33,12.64-20.88,6.88-9.45,23.29-12.45,33.59-6.89,5,2.7,5.58,6.28,2.26,10.99-3.82,5.4-7.21,11.1-10.94,16.57-4.65,6.81-9.69,13.36-14.1,20.31-3.19,5.02-5.62,10.51-8.39,15.79-2.69,5.11-5.39,10.22-8.37,15.89,1.96,.34,3.2,.8,4.41,.74,13.29-.64,26.57-1.29,39.85-2.12,3.5-.22,3.51,1.68,3,4.04-.83,3.87-6.25,7.85-11.23,7.61-5.57-.26-10.71-.59-16.39,1.49-4.76,1.74-10.82,.02-16.3-.28-7.96-.43-10.37,1.18-13.2,8.46-5.18,13.32-10.36,26.64-15.77,39.86-16.18,39.49-29.79,79.79-38.72,121.58-.73,3.4-1.37,6.97-1.06,10.37,.2,2.24,2.17,4.32,3.34,6.48,2.77-1.78,5.65-3.41,8.25-5.41,1.04-.8,1.24-2.63,2.19-3.63,26.8-27.98,49.72-59.11,72.86-90.05,1.98-2.65,3.92-5.48,6.44-7.53,3.15-2.55,6.75-.74,6.32,3.26-.38,3.48-1.55,7.3-3.56,10.12-25.43,35.64-49.69,72.16-78.35,105.4-3.34,3.87-7.07,7.77-11.41,10.3-3.27,1.91-8.03,2.86-11.73,2.16-14.34-2.68-24.57-19.8-21.54-34.09,1.68-7.91,2.12-16.07,3.61-24.03,1.46-7.79,3.53-15.47,5.33-23.19-.33-.14-.65-.28-.98-.43Zm-77.87-80.67c-5.72,1.12-9.6,5.53-12.42,10.67-4.3,7.85-8.07,16-12.01,24.05-6.94,14.18-9.17,29.6-11.78,44.91-.11,.65-.25,1.39-.05,1.98,.51,1.49,.86,3.65,1.93,4.17,1.06,.51,3.21-.29,4.39-1.18,1.97-1.48,3.77-3.32,5.25-5.3,9.95-13.32,19.58-26.89,29.78-40.02,5.24-6.74,6.58-13.37,3.03-21.16-1.09-2.38-1.44-5.11-2.05-7.69-.18-.76-.38-1.68-.12-2.34,1.52-3.78-1.29-8.11-5.95-8.09Zm133.43-6.18c-14,28.84-25.17,58.71-32.52,89.92,10.84-29.98,21.68-59.95,32.52-89.92Z"/><path d="M877.79,236.19c9.78-5.18,18.68-9.34,27.01-14.44,9.77-5.98,19.04-12.78,28.52-19.24,.68-.46,1.54-.96,1.82-1.65,3.13-7.74,6.17-15.52,9.23-23.28,.98-2.47,2.02-4.91,2.95-7.4,5.63-15.09,11.24-30.18,17.16-46.09-24.76,.14-49.36,6.15-73.41-1.24-.11-.55-.22-1.1-.34-1.64,1.46-.74,2.88-1.59,4.39-2.2,10.11-4.07,20.85-4,31.47-4.56,12.46-.66,24.94-1.04,37.41-1.52,4.01-.15,6.72-1.66,8.35-5.74,3.53-8.8,7.21-17.57,11.5-26.02,2.67-5.26,6.6-9.87,9.9-14.82,1.56-2.34,3.02-4.75,4.48-7.17,4.38-7.25,8.22-14.89,13.22-21.68,6.65-9.03,23.59-11.73,33.33-6.13,4.66,2.68,5.24,6.29,2.11,10.76-3.89,5.55-7.46,11.33-11.27,16.93-4.63,6.8-9.85,13.25-13.97,20.35-5.79,9.99-10.79,20.44-16.36,31.13,1.46,.4,2.37,.9,3.25,.86,13.46-.61,26.91-1.31,40.37-1.92,1.04-.05,2.84,.22,3.01,.75,.41,1.31,.58,3.12-.03,4.25-2.4,4.46-6.42,6.9-11.44,6.62-5.26-.29-10.05-.33-15.4,1.44-5.18,1.71-11.49,.04-17.31-.25-7.31-.36-9.76,1.31-12.42,8.17-5.06,13.01-10.08,26.04-15.41,38.94-16.18,39.14-29.67,79.14-38.77,120.55-.96,4.36-1.5,8.89-1.47,13.34,.01,1.88,1.99,3.76,3.08,5.63,2.7-1.57,5.54-2.97,8.05-4.81,1.01-.74,1.07-2.64,1.94-3.69,17.67-21.25,35.55-42.32,53.04-63.71,7.89-9.66,14.97-19.98,22.52-29.93,2.23-2.94,4.57-7.48,8.99-4.77,4.21,2.59,1.65,6.87,.21,10.35-.7,1.67-1.71,3.25-2.79,4.72-24.98,33.7-49.89,67.46-75.1,100.99-3.84,5.11-8.71,9.73-13.92,13.44-2.89,2.06-7.77,3.11-11.19,2.28-10.42-2.53-18.49-8.52-21.01-19.7-2.95-13.12-.35-26.02,2.37-38.82,3.29-15.46,6.94-30.84,10.42-46.26,.17-.77,.1-1.6,.18-3.2-1.74,1.08-2.93,1.83-4.14,2.56-11.5,7-22.91,14.15-34.54,20.93-4.17,2.43-6.37,4.76-5.46,10.19,2.4,14.39,3.08,28.93-1.88,42.98-6.02,17.08-16.9,29.64-35.46,33.03-12.72,2.32-25.3,.83-36.54-6.38-5.98-3.84-8.94-9.51-11.31-16.34-4.53-13.02,2.24-22.08,10.18-29.53,10.48-9.83,22.71-17.81,34.2-26.57,.26-.2,.58-.33,.87-.49,10.08-5.52,10.99-7.85,7.59-18.77-3.65-11.75-7.4-23.41-6.84-36.08,.2-4.63-2.25-9.32-3.14-14.05-3.1-16.56,3.07-29.83,17.25-37.46,5.99-3.22,11.05-2.67,14.41,1.58,3.66,4.62,2.88,11.5-.82,16.46-4.12,5.53-4.08,12.25-3.06,18.76,1.39,8.93,3.07,17.83,4.86,26.69,1.47,7.29,3.27,14.52,5.18,22.86Zm-24.28,31.42l-1.59-1.06c-11.44,9.21-23.11,18.16-34.18,27.81-3.19,2.78-5.12,7.37-6.77,11.48-2.71,6.74-.2,10.5,7.11,10.28,12.25-.36,23.48-3.09,28.88-16.08,1.08-2.6,2.61-5.02,3.7-7.62,3.39-8.02,3.23-16.41,2.84-24.81Zm121.81-101.21c-13.43,27.71-24.12,56.58-31.39,86.66,10.46-28.89,20.93-57.77,31.39-86.66Zm-107.68,149.19c-.31-.35-.63-.71-.94-1.06-5.43,3.76-10.85,7.53-16.28,11.29l.81,1.16c5.47-3.8,10.94-7.59,16.41-11.39Z"/><path class="f" d="M10.17,261.01c2.36-21.76,3.36-43.69,11.04-64.67,10.18-27.8,18.79-56.24,34.46-81.67,4.52-7.34,10.63-13.74,14.85-21.23,10.24-18.15,22.09-35.13,35.85-50.7,6.02-6.81,12.88-13.08,20.18-18.5,15.35-11.39,34-8.77,46.42,5.74,14.03,16.4,17.65,42.97,7.44,61.94-8.05,14.95-21.43,23.29-38.01,26.42-1.62,.31-3.45-.45-5.18-.72,.63-1.55,1.13-3.16,1.91-4.63,1.64-3.08,3.5-6.05,5.15-9.13,7.17-13.31,16.91-25.31,20.7-40.35,.85-3.38,1.91-6.72,2.6-10.13,.9-4.43-.35-9.23-3.83-11.14-2.66-1.46-7.47-.58-10.69,.77-18.66,7.85-29.42,23.97-40.53,39.67-24.95,35.26-42.25,74.27-56,114.95-5.64,16.68-11.05,33.51-15.16,50.6-2.38,9.9-2.32,20.46-2.72,30.75-.26,6.51,2.82,12.39,6.94,17.17,4.51,5.23,10.93,4.98,17.2,3.79,11.25-2.13,21.08-7.48,29.74-14.62,23.11-19.08,41.37-42.31,56.63-67.98,.25-.43,.34-1.02,.69-1.31,1.56-1.29,3.2-2.49,4.8-3.72,.76,1.87,2.21,3.74,2.18,5.59-.27,15.12-4.73,29.16-11.75,42.42-12.25,23.12-30.07,41.33-50.73,57.01-13.93,10.57-27.97,10.25-42.8,1.66-14.53-8.41-27.4-18.3-35.38-33.5-4.03-7.66-6.46-15.69-5.98-24.48Zm44.27-84.3c17.1-32.18,34.42-64.79,50.68-95.39-22.22,27.41-38.05,60.81-50.68,95.39Z"/><path d="M571.7,85.38c-7.5-1.01-14.39-1.85-21.25-2.94-1.75-.28-3.51-1.14-5.03-2.1-3.99-2.54-5.92-6.04-4.99-11,.96-5.1,4.23-7.43,8.97-7.87,8.29-.78,16.6-1.41,24.91-1.9,5.11-.3,8.4-2.23,9.22-7.72,.41-2.76,1.41-5.5,2.59-8.05,2.88-6.24,8.04-7.76,13.97-4.23,6.03,3.59,9.45,9.15,11.26,16.52,33.86-3.67,67.51-7.31,102.17-11.06-2.09,2.04-3.56,4.02-5.51,5.28-4.19,2.7-8.64,5-12.94,7.53-25.29,14.87-53.44,19.36-81.94,22.28-6.83,.7-11.02,2.56-13.09,9.97-4.78,17.13-10.42,34.03-16.08,50.9-2.48,7.39-5.97,14.44-8.83,21.72-.93,2.36-1.3,4.94-1.98,7.65,23.03-.91,45.33-1.79,69.25-2.74-1.59,2.61-2.58,4.55-3.89,6.24-.54,.69-1.73,1.01-2.69,1.22-15.7,3.46-31.42,6.81-47.1,10.34-6.61,1.49-13.35,2.8-19.58,5.3-2.42,.97-4.28,4.76-5.25,7.66-3.06,9.11-4.59,18.84-8.49,27.53-9.84,21.87-14.75,45.27-22.35,67.81-2.63,7.79-6.36,15.25-10.16,22.57-.78,1.51-4.33,2.72-6.23,2.32-8.66-1.87-16.36-5.8-21.53-13.34-3.2-4.67-3.24-9.31-.97-14.99,10.68-26.77,20.7-53.81,30.98-80.74,1.23-3.23,2.65-6.39,3.93-9.47-4.46-1.75-8.92-2.81-12.52-5.18-2.23-1.47-4.28-4.85-4.42-7.48-.2-3.91,3.32-5.89,6.99-6.62,4.08-.82,8.21-1.36,12.31-2.04,3.81-.63,5.93-2.83,7.41-6.47,6.71-16.46,14.1-32.66,20.49-49.25,4.77-12.41,8.38-25.26,12.42-37.63Zm-18.33,126.42l-1.43-.67c-5.43,14.01-10.86,28.03-16.29,42.04l1.74,.66c5.33-14.01,10.66-28.02,15.99-42.03Z"/><path d="M752.15,213.6c-8.1-.95-15.74-1.85-24.36-2.86-8.01,11.15-16.71,23.72-25.94,35.89-4.59,6.05-9.89,11.61-15.35,16.9-3.53,3.42-8.24,3.99-13.08,2.44-7.27-2.33-13.82-5.55-18.07-12.38-2.01-3.24-4.82-5.98-6.82-9.23-3.87-6.28-4.74-12.79-1.27-19.77,1-2,.05-4.88,.64-7.19,2.49-9.66,4.73-19.42,7.98-28.83,4.93-14.28,23.27-17.25,33.2-5.64,3.24,3.79,.18,7.49-1.97,9.68-5.1,5.19-7.68,11.2-9.63,18.03-1.85,6.51-5.19,12.57-7.48,18.98-1.27,3.57-2.2,7.39-2.45,11.16-.5,7.41,3.92,10.02,10.49,6.43,2.32-1.27,4.46-2.91,6.57-4.53,3.44-2.63,6.87-5.28,10.15-8.12,4.61-3.99,9.28-7.38,11.89-13.83,2.85-7.02,8.68-12.91,13.57-19,1.72-2.15,2.07-3.58,.89-6.09-6.01-12.76,5.17-32.35,19.19-33.27,3.63-.24,7.59,.92,11.03,2.35,3.92,1.62,2.48,9.15-.78,12.73-3.41,3.75-5.65,8.67-7.84,13.35-.47,1,1.12,4.03,2.4,4.56,3.45,1.41,7.2,2.27,10.9,2.8,5.73,.81,11.71,.46,17.26,1.86,9.58,2.41,11.68,7.42,7.93,16.42-.9,2.15-1.94,4.24-2.83,6.39-8.04,19.36-16.18,38.67-23.97,58.13-1.26,3.14-.92,6.93-1.32,10.42,3.26-1.23,6.95-1.85,9.69-3.8,6.04-4.3,11.22-9.37,15.74-15.59,16.83-23.18,34.47-45.78,51.81-68.59,.2-.26,.38-.59,.65-.75,2.28-1.33,4.59-2.63,6.88-3.94,.35,2.96,1.69,6.26,.83,8.82-1.73,5.15-4.05,10.34-7.2,14.75-14.87,20.87-29.65,41.84-45.37,62.07-9.03,11.63-21.67,19.51-34.41,26.79-5.8,3.32-15.59-.43-20.23-7.67-4.82-7.54-7.51-15.95-5.36-24.75,2.06-8.42,5.17-16.63,8.44-24.68,4.94-12.16,10.4-24.1,15.66-36.13,.72-1.65,1.49-3.27,1.95-4.28Z"/><path d="M690.93,149.71l8.54-7.34c-1.39,4.52-2.66,8.6-7.87,10.02-2.26,.61-3.49,4.34-5.74,5.77-3.18,2.02-6.89,3.22-10.37,4.77-1.39-3.76-3.18-7.43-3.98-11.31-.33-1.6,1.01-4.16,2.39-5.38,8.72-7.72,9.64-18.95,13.36-28.91,.32-.85,.31-2.51-.2-2.88-4.7-3.37-2.12-6.34,.31-9.37,.81-1.01,1.42-2.51,2.47-2.95,9.64-4.07,21.27,1.96,23.44,12.13,1.02,4.8-1.29,8.66-4.86,11.29-3.74,2.75-6.37,5.8-8.16,10.19-1.41,3.47-4.47,6.27-6.8,9.36-1.03,1.38-2.06,2.76-3.08,4.14l.56,.47Z"/><path class="d" d="M231.16,168.39c4.66-.03,7.47,4.31,5.95,8.09-.27,.66-.06,1.59,.12,2.34,.62,2.59,.96,5.31,2.05,7.69,3.56,7.79,2.21,14.42-3.03,21.16-10.2,13.13-19.82,26.7-29.78,40.02-1.48,1.98-3.28,3.82-5.25,5.3-1.18,.89-3.33,1.69-4.39,1.18-1.07-.52-1.42-2.68-1.93-4.17-.2-.59-.06-1.33,.05-1.98,2.61-15.32,4.84-30.74,11.78-44.91,3.94-8.05,7.71-16.19,12.01-24.05,2.82-5.14,6.69-9.55,12.42-10.67Z"/><path class="d" d="M368.37,165.07c-10.84,29.97-21.68,59.95-32.52,89.92,7.36-31.22,18.52-61.09,32.52-89.92Z"/><path class="d" d="M860.56,267.61c.4,8.4,.55,16.79-2.84,24.81-1.1,2.6-2.62,5.02-3.7,7.62-5.4,12.99-16.63,15.72-28.88,16.08-7.31,.21-9.83-3.54-7.11-10.28,1.65-4.11,3.58-8.7,6.77-11.48,11.06-9.65,22.74-18.59,34.18-27.81l1.59,1.06Z"/><path class="d" d="M975.32,166.4c-10.46,28.89-20.93,57.77-31.39,86.66,7.27-30.08,17.96-58.95,31.39-86.66Z"/><path class="d" d="M867.63,315.58c-5.47,3.8-10.94,7.59-16.41,11.39l-.81-1.16c5.43-3.76,10.85-7.53,16.28-11.29,.31,.35,.63,.71,.94,1.06Z"/><path class="d" d="M54.45,176.7c12.63-34.58,28.46-67.98,50.68-95.39-16.26,30.6-33.58,63.21-50.68,95.39Z"/><path class="d" d="M564.94,210.57c-5.33,14.01-10.66,28.02-15.99,42.03l-1.74-.66c5.43-14.01,10.86-28.03,16.29-42.04l1.43,.67Z"/></g><g id="c"/></svg>