<!--?xml version="1.0" encoding="utf-8"?-->
<!-- Generator: Adobe Illustrator 18.1.1, SVG Export Plug-In . SVG Version: 6.00 Build 0)  -->

<svg version="1.1" id="_x32_" xmlns="http://www.w3.org/2000/svg" xmlns:xlink="http://www.w3.org/1999/xlink" x="0px" y="0px" viewBox="0 0 512 512" style="width: 256px; height: 256px; opacity: 1;" xml:space="preserve">
<style type="text/css">
	.st0{fill:#4B4B4B;}
</style>
<g>
	<rect x="15.746" y="46.002" class="st0" width="496.254" height="77.191" style="fill: rgb(255, 255, 255);"></rect>
	<path class="st0" d="M95.651,262.649c8.256-1.005,16.65-1.586,25.18-1.586c55.594,0,106.004,22.07,143.045,57.884
		c37.042-35.814,87.452-57.884,143.046-57.884c8.53,0,16.923,0.582,25.18,1.586V146.176H95.651V262.649z" style="fill: rgb(255, 255, 255);"></path>
	<rect x="22.057" y="146.176" class="st0" width="36.761" height="183.806" style="fill: rgb(255, 255, 255);"></rect>
	<path class="st0" d="M49.614,351.306H31.262C13.994,351.306,0,365.307,0,382.568v6.232h80.875v-6.232
		C80.875,365.307,66.881,351.306,49.614,351.306z" style="fill: rgb(255, 255, 255);"></path>
	<rect y="410.857" class="st0" width="80.875" height="55.142" style="fill: rgb(255, 255, 255);"></rect>
</g>
</svg>
